<svg width="144" height="205" viewBox="0 0 144 205" fill="none" xmlns="http://www.w3.org/2000/svg">
<path d="M78.4774 87.4389L83.9089 104.642C92.2381 106.995 113.084 103.255 127.461 93.3449C133.662 89.0747 138.658 83.6558 140.931 77.0858C147.582 57.8631 130.387 56.6931 123.767 60.8681C118.617 64.115 114.818 68.4345 110.178 72.7014C103.515 78.8279 95.1115 84.8481 78.4774 87.4389Z" fill="white"/>
<path d="M126.315 92.7429C126.483 92.6293 126.65 92.5157 126.815 92.4011C133.444 87.8361 137.83 82.5574 139.85 76.7119C141.638 71.5457 141.756 67.404 140.231 64.5215C140.098 66.4396 139.635 68.6353 138.771 71.1364C138.736 71.2371 138.698 71.3389 138.659 71.4429C137.508 74.4476 134.687 76.1043 131.801 76.1043C129.973 76.1043 128.119 75.4399 126.646 74.0308C126.101 73.5089 125.688 73.181 125.51 73.181C125.448 73.181 125.415 73.2206 125.415 73.3042C125.375 79.8688 127.46 85.0285 125.3 87.3968C124.427 88.3548 123.487 89.2463 122.494 90.0736C122.509 90.0854 122.524 90.0972 122.54 90.11C122.54 90.109 122.54 90.1079 122.54 90.1068C122.982 90.4626 123.427 90.8044 123.874 91.1291C123.978 91.2041 124.081 91.2791 124.185 91.3531C124.32 91.4484 124.455 91.5427 124.59 91.636C124.73 91.7324 124.859 91.8385 124.976 91.9521C125.15 92.0625 125.327 92.1696 125.505 92.2768C125.771 92.4354 126.041 92.5908 126.315 92.7429Z" fill="#B9AFBE"/>
<path d="M78.4757 87.4399L80.9772 95.364L83.9067 104.643C85.3459 105.05 87.16 105.274 89.2489 105.318C99.2478 105.52 115.567 101.543 127.459 93.3456C117.711 88.5052 112.598 78.9632 110.175 72.7019C107.069 75.5608 103.58 78.3932 99.0548 80.8722C94.9557 83.1111 90.0027 85.0559 83.7106 86.4562C82.063 86.8239 80.3194 87.1518 78.4757 87.4399Z" fill="#4A83FF"/>
<path d="M125.505 92.2761C125.326 92.1695 125.149 92.062 124.975 91.9518C124.975 91.9518 124.976 91.9518 124.976 91.9527C125.15 92.062 125.327 92.1704 125.505 92.2761Z" fill="#8C7B94"/>
<path d="M90.2481 104.18C97.0547 104.134 106.726 102.251 116.003 98.2792C115.174 97.6225 114.332 96.9143 113.494 96.1519C113.278 95.9559 113.063 95.7563 112.848 95.5539C108.384 97.2178 103.868 98.4346 99.6726 99.206C98.6039 99.4029 97.5371 99.4977 96.4847 99.4977C93.2391 99.4977 90.1181 98.5944 87.4307 96.9721C87.4514 97.0588 87.4722 97.1446 87.4921 97.2305C87.5373 97.2576 87.577 97.2937 87.6095 97.3379C88.5941 98.6766 89.1524 100.15 89.5932 101.65C89.848 102.485 90.0612 103.33 90.2481 104.18ZM125.714 93.1412C125.916 93.0094 126.116 92.8766 126.313 92.7438C126.04 92.5911 125.771 92.4367 125.505 92.2777C125.327 92.1711 125.151 92.0627 124.976 91.9534C125.327 92.2948 125.573 92.704 125.714 93.1412Z" fill="#435EBE"/>
<path d="M90.0716 106.489C98.0745 106.49 108.988 103.984 118.34 99.7464C121.925 98.1244 125.214 96.2853 128.113 94.2827C135.15 89.4357 139.826 83.775 142.009 77.4594C145.432 67.5673 142.626 62.6946 139.668 60.3495C135.105 56.7305 127.446 57.1962 123.156 59.9017C119.286 62.3431 116.22 65.3151 112.974 68.4606C111.819 69.58 110.624 70.7374 109.385 71.8759C107.017 74.0542 104.905 75.7635 102.74 77.2568C96.0414 81.8799 88.2758 84.7567 78.3006 86.3104C77.677 86.4078 77.2494 86.9921 77.3468 87.6156C77.4442 88.238 78.0229 88.6678 78.6521 88.5682C88.9799 86.9608 97.0465 83.963 104.037 79.1374C106.293 77.5836 108.484 75.8094 110.932 73.5583C112.192 72.3997 113.398 71.2322 114.564 70.1016C117.723 67.0412 120.706 64.1498 124.375 61.8349C127.929 59.5939 134.501 59.1674 138.249 62.1405C141.659 64.8439 142.212 69.8834 139.849 76.7116C137.829 82.5571 133.444 87.8361 126.814 92.4021C124.027 94.3275 120.859 96.0984 117.397 97.6655C104.42 103.546 90.3371 105.273 84.2179 103.543C83.61 103.371 82.9786 103.725 82.8074 104.333C82.6361 104.939 82.9898 105.571 83.5966 105.742C85.3854 106.248 87.5885 106.489 90.0716 106.489Z" fill="#371A45"/>
<path d="M102.807 79.5622C105.163 88.2793 111.243 94.6347 116.626 98.7649C117.512 99.4438 118.705 99.5671 119.71 99.083C121.306 98.3154 122.872 97.4918 124.394 96.6132C126.262 95.5337 126.365 92.8632 124.59 91.6359C122.547 90.2252 120.509 88.5097 118.636 86.4283C114.962 82.346 112.643 78.4512 111.191 75.326C110.372 73.5616 108.113 73.0448 106.618 74.2873C105.756 75.0039 104.862 75.7113 103.924 76.4065C102.942 77.1353 102.488 78.3829 102.807 79.5622Z" fill="white"/>
<path d="M116.004 98.28H116.005C115.175 97.6236 114.333 96.9146 113.495 96.1529C114.333 96.9146 115.175 97.6236 116.004 98.28Z" fill="#3F4694"/>
<path d="M118.427 99.3757C118.864 99.3757 119.303 99.2789 119.71 99.0827C120.051 98.9184 120.391 98.7516 120.729 98.5821C120.391 98.7507 120.051 98.9176 119.71 99.0827C119.302 99.2781 118.863 99.3749 118.427 99.3749C117.787 99.3749 117.152 99.1683 116.626 98.7637C116.419 98.6055 116.212 98.4447 116.004 98.2796H116.004C116.212 98.4447 116.419 98.6063 116.626 98.7637C117.152 99.1683 117.787 99.3757 118.427 99.3757Z" fill="#371A45"/>
<path d="M124.975 91.9519C124.858 91.8385 124.73 91.7324 124.589 91.6354C124.454 91.5429 124.319 91.4485 124.184 91.3524C124.318 91.4485 124.453 91.5429 124.588 91.6354C124.728 91.7315 124.856 91.8376 124.972 91.9501C124.973 91.951 124.974 91.9519 124.975 91.9519Z" fill="#8C7B94"/>
<path d="M124.975 91.9539C124.975 91.953 124.975 91.953 124.975 91.953C124.974 91.953 124.973 91.9521 124.973 91.9511V91.952C124.974 91.953 124.974 91.953 124.975 91.9539Z" fill="#6E5978"/>
<path d="M125.714 93.1414C125.572 92.7042 125.327 92.295 124.976 91.9535C124.975 91.9535 124.974 91.9526 124.972 91.9517C125.325 92.2941 125.572 92.7042 125.714 93.1414Z" fill="#3F4694"/>
<path d="M125.816 93.5632C125.792 93.4208 125.758 93.2783 125.713 93.1403C125.757 93.2783 125.792 93.4208 125.816 93.5632Z" fill="#371A45"/>
<path d="M123.874 91.1296C123.427 90.804 122.982 90.4629 122.54 90.1071C122.54 90.108 122.539 90.1089 122.539 90.1098C122.982 90.4647 123.428 90.804 123.874 91.1296Z" fill="#8C7B94"/>
<path d="M118.426 99.3738C118.862 99.3738 119.301 99.2779 119.709 99.0815C120.05 98.9173 120.39 98.7503 120.728 98.5814C121.972 97.9579 123.197 97.3012 124.393 96.6103C125.526 95.9555 126.009 94.7123 125.817 93.5631C125.793 93.4207 125.759 93.2784 125.714 93.1408C125.572 92.7023 125.326 92.2924 124.972 91.9507V91.9498C124.856 91.8369 124.728 91.7315 124.588 91.6347C124.453 91.5427 124.318 91.4478 124.184 91.3519C124.081 91.2788 123.977 91.2039 123.874 91.1289C123.427 90.8034 122.982 90.4646 122.539 90.1097C122.3 90.6383 121.899 91.109 121.339 91.4335C119.817 92.3123 118.249 93.1332 116.655 93.9019C116.247 94.0983 115.807 94.1951 115.371 94.1951C114.731 94.1951 114.097 93.9873 113.571 93.584C110.55 91.2684 107.309 88.2478 104.632 84.504C106.863 89.2423 110.151 93.1151 113.494 96.151C114.332 96.913 115.174 97.6219 116.003 98.2786C116.211 98.4438 116.418 98.6051 116.625 98.7636C117.152 99.1669 117.786 99.3738 118.426 99.3738Z" fill="#B9AFBE"/>
<path d="M102.805 79.5623H102.802H102.805ZM108.498 74.7475C108.631 74.7475 108.765 74.7618 108.898 74.7915C109.454 74.9164 109.912 75.2871 110.154 75.8063C112.004 79.7906 114.572 83.6203 117.785 87.193C119.574 89.1796 121.644 90.991 123.939 92.5762C124.458 92.9346 124.741 93.5039 124.715 94.1377C124.69 94.7675 124.364 95.3092 123.822 95.6225C122.358 96.4683 120.807 97.2855 119.214 98.0524C118.592 98.3515 117.867 98.2767 117.321 97.8579C112.494 94.1551 106.249 87.9231 103.908 79.2633V79.2643C103.714 78.5434 103.986 77.7815 104.603 77.3248C105.519 76.6449 106.416 75.9394 107.347 75.1653C107.676 74.8919 108.082 74.7475 108.498 74.7475ZM118.422 100.52C119.026 100.52 119.635 100.386 120.205 100.112C121.85 99.3202 123.451 98.4754 124.964 97.6019C126.182 96.8984 126.941 95.6379 126.998 94.2289C127.055 92.8178 126.397 91.4969 125.238 90.6961C123.089 89.2113 121.153 87.5187 119.484 85.6632C116.423 82.2625 113.98 78.6212 112.226 74.8437C111.683 73.6764 110.653 72.8439 109.399 72.5623C108.152 72.2807 106.871 72.5899 105.886 73.4091C104.989 74.1546 104.124 74.8345 103.242 75.4888C101.865 76.5098 101.261 78.226 101.702 79.8603C104.209 89.1356 110.824 95.7536 115.93 99.6704C116.663 100.233 117.538 100.52 118.422 100.52Z" fill="#371A45"/>
<path d="M11.1523 142.402C17.7241 150.969 34.8346 147.999 34.8346 147.999L34.9838 90.1088L35.0139 78.4166C35.0139 78.4166 25.2536 78.6753 17.836 81.7397C14.2625 83.2136 11.2353 85.3408 10.1031 88.4028C6.15902 99.0386 5.75354 135.361 11.1523 142.402Z" fill="white"/>
<path d="M11.5732 140.952C11.4146 140.066 11.2924 139.123 11.2055 138.122C10.9105 138.002 10.6226 137.869 10.3418 137.721C10.7037 139.029 11.1138 140.123 11.5732 140.952Z" fill="#B9AFBE"/>
<path d="M28.0994 149.653C31.8806 149.653 34.7421 149.175 35.0295 149.126C35.6511 149.018 36.0671 148.426 35.9601 147.805C35.8531 147.183 35.2591 146.765 34.6399 146.874C34.4752 146.902 18.1286 149.62 12.0581 141.705C7.05646 135.183 7.16587 99.6109 11.1732 88.8C14.3545 80.217 34.8359 79.563 35.0439 79.5581C35.6739 79.5401 36.1717 79.0159 36.1549 78.3847C36.138 77.7535 35.6066 77.2666 34.9814 77.2738C34.0761 77.2979 12.7458 77.9808 9.03066 88.0065C7.12138 93.157 5.89622 104.712 5.98158 116.759C6.02727 123.064 6.53225 138.254 10.2462 143.097C14.4206 148.54 22.3319 149.653 28.0994 149.653Z" fill="#371A45"/>
<path d="M8.40526 117.894L20.067 118.769C21.1083 118.848 21.9668 119.616 22.152 120.644C22.8325 124.405 23.9531 133.176 20.2943 136.071C17.2571 138.475 12.3262 138.193 9.43569 135.747C6.20372 133.012 5.8875 124.41 5.94041 120.152C5.95604 118.829 7.08626 117.795 8.40526 117.894Z" fill="white"/>
<path d="M11.0662 135.509C11.0435 134.579 11.0471 133.606 11.0757 132.586C10.2784 132.224 9.43835 131.65 8.56495 130.802C8.34005 130.583 8.12229 130.338 7.91763 130.069C8.44714 132.395 9.21226 134.06 10.1749 134.874C10.4522 135.11 10.7508 135.322 11.0662 135.509Z" fill="#B9AFBE"/>
<path d="M8.31779 119.033L19.9787 119.908C20.5024 119.947 20.9318 120.333 21.0249 120.846C22.3324 128.07 21.7929 133.426 19.5819 135.176C17.0456 137.183 12.7349 137.045 10.1708 134.875C8.14241 133.159 6.98734 127.66 7.07926 120.166C7.0841 119.844 7.21593 119.548 7.45299 119.332C7.68885 119.115 7.99485 119.01 8.31779 119.033ZM15.1539 138.882C17.279 138.882 19.3824 138.248 21.0007 136.967C25.0066 133.797 24.1442 125.251 23.2734 120.439C22.9952 118.902 21.7107 117.746 20.1504 117.629L8.48834 116.753C7.54855 116.683 6.60513 117.009 5.90967 117.647C5.21299 118.285 4.80659 119.193 4.7945 120.137C4.72193 126.089 5.33878 133.779 8.69516 136.619C10.4695 138.121 12.8256 138.882 15.1539 138.882Z" fill="#371A45"/>
<path d="M17.7882 127.387C17.6584 128.849 17.6666 130.245 17.5707 131.629C17.4818 133.01 17.3263 134.372 16.9873 135.651C16.6529 136.927 16.1221 138.119 15.3247 139.016C14.5343 139.92 13.4762 140.492 12.2918 140.774L12.2883 140.774C11.6745 140.921 11.2945 141.538 11.4406 142.151C11.5868 142.766 12.2041 143.145 12.8179 142.999C12.8425 142.993 12.8682 142.985 12.8928 142.978C13.6574 142.741 14.408 142.408 15.0932 141.955C15.7783 141.505 16.3898 140.935 16.8844 140.295C17.8817 139.006 18.4032 137.499 18.692 136.04C18.9796 134.57 19.0474 133.109 19.0486 131.676C19.0544 130.246 18.9609 128.822 18.996 127.471V127.455C19.0053 127.122 18.7411 126.844 18.4067 126.835C18.0863 126.826 17.8174 127.071 17.7882 127.387Z" fill="#371A45"/>
<path d="M15.2916 87.9807C16.3646 88.0645 17.4582 88.1896 18.5358 88.3376C19.6167 88.4845 20.692 88.6589 21.7615 88.8586C22.8311 89.0559 23.8937 89.282 24.946 89.5379C25.9995 89.7846 27.038 90.083 28.0674 90.3905L28.0869 90.3962C28.6928 90.5764 29.3297 90.2322 29.511 89.6263C29.6912 89.0215 29.3469 88.3835 28.741 88.2033C28.7054 88.1919 28.6687 88.1827 28.632 88.1758C27.5257 87.9612 26.4195 87.7593 25.3098 87.6124C24.2012 87.4563 23.0916 87.3324 21.9807 87.2394C20.8699 87.143 19.7602 87.073 18.6494 87.0329C17.5351 86.9916 16.4323 86.9732 15.3077 86.9962C15.0357 87.0019 14.82 87.2268 14.8257 87.4988C14.8314 87.7535 15.0288 87.9589 15.2778 87.9796L15.2916 87.9807Z" fill="#371A45"/>
<path d="M27.4322 87.4343C27.9048 86.8708 28.392 86.3051 28.8882 85.7416C29.2609 84.4575 29.6493 83.1666 30.0522 81.8701C29.4685 81.3313 28.8972 80.7757 28.3393 80.2066C25.4184 80.6387 21.9666 81.3526 18.8999 82.5245C21.576 84.4462 24.4362 86.0896 27.4322 87.4343Z" fill="#B9AFBE"/>
<path d="M18.8999 82.5261C21.9664 81.3542 25.418 80.6395 28.3389 80.2071C28.016 79.8763 27.6964 79.5399 27.3814 79.1989C24.3691 79.6855 20.9017 80.4736 17.8363 81.7403C18.1875 82.0068 18.542 82.2687 18.8999 82.5261Z" fill="#371A45"/>
<path d="M57.755 190.063C62.7427 201.618 84.0937 199.716 89.4829 194.934C95.0032 190.03 85.0224 183.909 85.0224 183.909C87.1081 180.365 88.2488 175.317 88.8182 169.993C89.4676 163.955 89.3886 157.568 89.1398 152.639C88.8856 147.556 88.4509 144.026 88.4509 144.026L56.9771 126.994C56.9987 133.399 58.0711 138.876 59.0295 143.266C61.0729 152.597 60.9409 159.773 60.1136 165.637C59.713 168.482 59.149 171.019 58.5885 173.341C57.0077 179.9 55.4673 184.757 57.755 190.063Z" fill="white"/>
<path d="M60.1138 165.636C59.7129 168.482 59.1485 171.018 58.5884 173.34C72.7162 175.818 83.5301 172.347 88.8184 169.992C89.4673 163.954 89.3882 157.567 89.1393 152.638C88.8859 147.556 88.4503 144.025 88.4503 144.025L56.9768 126.993C56.9981 133.397 58.0711 138.875 59.0293 143.265C61.073 152.596 60.9406 159.773 60.1138 165.636Z" fill="#4A83FF"/>
<path d="M75.2961 199.817C81.6718 199.817 87.6758 198.063 90.2396 195.785C91.7372 194.456 92.42 192.911 92.2681 191.195C91.9651 187.76 88.3115 184.793 86.5273 183.537C92.8514 171.177 89.7223 145.021 89.583 143.885C89.5062 143.258 88.9382 142.812 88.3097 142.891C87.683 142.968 87.2381 143.538 87.3149 144.164C87.3493 144.442 90.6565 172.087 84.0376 183.329C83.7211 183.865 83.8929 184.557 84.4246 184.882C85.8933 185.786 89.7576 188.719 89.9927 191.398C90.0768 192.366 89.6617 193.243 88.7221 194.077C85.6735 196.785 76.6102 198.559 69.0453 196.878C65.4613 196.082 60.775 194.175 58.8026 189.607C56.8664 185.12 57.8811 181.002 59.2837 175.305C61.1539 167.709 63.4808 158.257 60.1456 143.02C59.1056 138.266 58.1397 133.032 58.1208 126.986C58.118 126.357 57.6071 125.847 56.9777 125.847H56.974C56.3428 125.849 55.8327 126.362 55.8355 126.993C55.8554 133.254 56.8465 138.631 57.9137 143.51C61.135 158.226 58.8777 167.393 57.0645 174.758C55.6112 180.659 54.4645 185.32 56.7054 190.513C58.5684 194.83 62.6642 197.802 68.5497 199.109C70.7554 199.599 73.0488 199.817 75.2961 199.817Z" fill="#371A45"/>
<path d="M66.4377 174.927C73.3775 174.927 82.8439 174.154 89.2572 170.549C89.6706 170.317 89.8158 169.795 89.585 169.382C89.3534 168.969 88.8305 168.823 88.418 169.055C77.9129 174.96 57.8631 172.814 57.6618 172.791C57.1896 172.74 56.7683 173.078 56.7157 173.548C56.6631 174.018 57.0017 174.442 57.472 174.494C57.8239 174.533 61.4881 174.927 66.4377 174.927Z" fill="#371A45"/>
<path d="M64.3332 160.95C53.0192 161.743 44.4232 158.235 41.4809 156.927C33.9275 153.566 28.1195 147.468 25.2794 139.419C20.8937 126.99 24.047 99.5094 35.9583 68.3098L74.6756 65.8461C92.2925 99.5094 96.2049 136.334 88.9452 148.445C88.2124 149.666 87.4086 150.846 86.3993 151.887C82.249 156.172 75.6849 158.696 70.3721 159.962L64.3332 160.95Z" fill="white"/>
<path d="M23.5165 129.517C23.7515 133.432 24.3456 136.767 25.2813 139.42C28.1203 147.467 33.9289 153.566 41.4825 156.927C44.4236 158.235 53.0195 161.745 64.3324 160.949L70.3738 159.963C75.6849 158.698 82.2501 156.173 86.4015 151.888C87.4096 150.847 88.2114 149.667 88.9439 148.445C93.3489 141.096 93.64 124.644 89.2503 105.317C88.3289 101.255 87.6688 97.2271 86.3235 92.9693C85.6623 90.8674 84.4806 88.5886 83.7119 86.4559C81.2518 79.6131 78.2471 72.6659 74.6778 65.846L35.9595 68.3126C33.6038 74.4856 31.5885 80.5136 29.9093 86.3066L29.9071 86.3187C24.9068 103.556 22.8608 118.725 23.5165 129.517Z" fill="#4A83FF"/>
<path d="M86.8761 97.5454C86.8255 97.962 86.8212 98.3647 86.8325 98.7622C86.8386 99.1605 86.8726 99.551 86.9127 99.9397C86.9824 100.719 87.1411 101.474 87.2918 102.229C87.5838 103.743 87.9831 105.23 88.3535 106.725C88.7292 108.218 89.0273 109.73 89.3053 111.244C89.5895 112.757 89.8362 114.275 90.0689 115.795C90.9615 121.876 91.4688 128.034 91.1689 134.129C91.0103 137.169 90.6547 140.204 89.8798 143.088C89.4893 144.525 89.0003 145.929 88.3309 147.201C87.9996 147.818 87.6013 148.477 87.1899 149.081C86.7776 149.689 86.3391 150.265 85.8606 150.792C83.8942 152.908 81.3481 154.571 78.6512 155.87C77.9748 156.196 77.2871 156.502 76.5872 156.784C75.8907 157.071 75.1638 157.286 74.4429 157.51C73.7229 157.738 73.0125 157.989 72.3135 158.301C71.9657 158.461 71.6188 158.63 71.2806 158.844C70.9433 159.06 70.6051 159.279 70.2843 159.593L70.2712 159.605C70.0995 159.772 70.096 160.047 70.2634 160.218C70.3192 160.275 70.3889 160.314 70.4612 160.334C71.3207 160.565 72.1383 160.547 72.9323 160.433C73.7229 160.31 74.4935 160.095 75.2396 159.815C75.9857 159.532 76.7136 159.204 77.4518 158.901C78.1901 158.599 78.9223 158.277 79.6432 157.928C82.5231 156.535 85.2845 154.766 87.556 152.326C88.1199 151.703 88.6229 151.04 89.0813 150.364C89.5416 149.684 89.9504 149.015 90.3539 148.264C91.1306 146.787 91.6623 145.239 92.0859 143.684C92.9218 140.567 93.2853 137.398 93.4509 134.246C93.7603 127.932 93.2373 121.653 92.3291 115.459C92.092 113.911 91.841 112.366 91.5525 110.828C91.4121 110.058 91.2631 109.29 91.1062 108.523L90.6599 106.221C90.3722 104.682 90.0506 103.149 89.5939 101.652C89.1519 100.151 88.5941 98.6776 87.61 97.3388C87.4766 97.1575 87.223 97.1183 87.0408 97.2517C86.9484 97.3196 86.8926 97.4216 86.8787 97.528L86.8761 97.5454Z" fill="#371A45"/>
<path d="M60.9866 162.21C62.1028 162.21 63.2447 162.171 64.4135 162.089C65.0427 162.045 65.5174 161.499 65.4726 160.87C65.4289 160.24 64.8882 159.766 64.2534 159.81C54.6309 160.485 46.8109 158.047 41.9465 155.883C34.5687 152.601 29.0325 146.619 26.3579 139.039C22.5156 128.152 24.2632 102.44 36.7663 69.4037L74.7503 66.9867C75.3783 66.9464 75.8575 66.4034 75.8172 65.7743C75.7769 65.144 75.2339 64.6659 74.6047 64.7062L35.8875 67.1703C35.4397 67.1983 35.0512 67.4849 34.8911 67.9024C23.6833 97.2604 19.3876 126.154 24.2028 139.799C27.0878 147.977 33.0606 154.431 41.0184 157.971C45.529 159.978 52.4635 162.21 60.9866 162.21Z" fill="#371A45"/>
<path d="M60.9872 162.208C62.103 162.208 63.2446 162.17 64.4118 162.088C65.0418 162.044 65.5154 161.497 65.4718 160.868C65.4283 160.239 64.8865 159.764 64.2521 159.808C54.6271 160.483 46.8117 158.045 41.9472 155.882C34.5685 152.6 29.0317 146.618 26.3587 139.039C22.1232 127.036 25.311 102.178 34.4814 75.7096C34.688 75.1132 34.3719 74.462 33.7754 74.2554C33.1779 74.0498 32.5278 74.3648 32.3223 74.9613C22.9933 101.887 19.8066 127.339 24.203 139.799C27.0892 147.977 33.0606 154.43 41.0179 157.97C45.5305 159.977 52.4658 162.208 60.9872 162.208Z" fill="#371A45"/>
<path d="M69.5577 184.412C70.8199 184 72.1154 183.704 73.4036 183.527C74.6903 183.337 75.9809 183.283 77.2448 183.341C77.8791 183.341 78.5037 183.455 79.125 183.51C79.7407 183.631 80.3596 183.701 80.9598 183.867C81.2591 183.95 81.5689 183.988 81.8642 184.085C82.1586 184.181 82.4562 184.268 82.7563 184.351C83.058 184.426 83.3468 184.542 83.6395 184.649C83.9331 184.753 84.23 184.852 84.5333 184.942L84.6415 184.974C85.2458 185.155 85.8817 184.811 86.0615 184.207C86.2192 183.679 85.9753 183.125 85.5068 182.874C84.247 182.199 82.8824 181.673 81.4583 181.438C80.7548 181.277 80.0318 181.252 79.3186 181.197C78.96 181.184 78.6013 181.203 78.2451 181.209C77.8881 181.208 77.5335 181.244 77.1797 181.282C75.7662 181.418 74.3812 181.73 73.0702 182.207C71.76 182.689 70.5116 183.301 69.3966 184.128C69.3235 184.182 69.308 184.285 69.3625 184.358C69.4056 184.416 69.4796 184.437 69.5447 184.417L69.5577 184.412Z" fill="#371A45"/>
<path d="M75.3483 197.534C81.0624 197.534 86.4971 196.054 88.7233 194.077C89.6622 193.243 90.0778 192.366 89.9929 191.398C89.9734 191.174 89.9283 190.948 89.8611 190.722C86.131 192.617 80.3153 194.178 74.8673 194.178C68.8394 194.178 63.2605 192.266 61.4552 186.78C60.0892 182.626 61.8601 179.469 63.5983 174.883C62.6947 174.857 61.8645 174.819 61.1254 174.778C61.0617 175.173 60.9928 175.567 60.9114 175.96C60.6091 177.507 60.2528 179.051 59.7515 180.562C59.2528 182.071 58.6808 183.57 57.9169 184.99C57.8665 185.087 57.8144 185.182 57.7622 185.278C57.8559 186.727 58.1733 188.147 58.8037 189.607C60.7753 194.175 65.4611 196.082 69.0462 196.879C71.0868 197.332 73.2361 197.534 75.3483 197.534Z" fill="#B9AFBE"/>
<path d="M64.2166 173.167C64.4993 172.336 64.7691 171.458 65.013 170.519C65.8043 167.474 68.2143 165.111 71.2595 164.325C77.2034 162.791 84.3997 159.721 88.0681 154.46C88.0328 153.559 87.9923 152.693 87.9466 151.875C87.8199 152.027 87.6889 152.177 87.5553 152.325C85.2832 154.766 82.5224 156.535 79.6418 157.928C78.9213 158.277 78.1895 158.599 77.4508 158.901C76.713 159.204 75.9846 159.532 75.2391 159.814C74.4926 160.095 73.7221 160.309 72.9317 160.433C72.5834 160.483 72.23 160.514 71.8715 160.514C71.4121 160.514 70.9423 160.463 70.4605 160.334C70.3881 160.314 70.3183 160.275 70.2622 160.218C70.2019 160.155 70.164 160.079 70.1476 160L68.578 160.256L65.4604 160.766C65.4656 160.801 65.4699 160.835 65.4716 160.871C65.5164 161.5 65.0415 162.046 64.4131 162.091C63.5029 162.154 62.6091 162.191 61.7308 162.205C61.948 165.222 61.9032 168.267 61.5825 171.294C61.5274 171.885 61.4524 172.475 61.3774 173.064C62.2161 173.106 63.1728 173.144 64.2166 173.167Z" fill="#435EBE"/>
<path d="M75.3304 198.675C81.3201 198.675 87.0391 197.099 89.4804 194.933C91.2203 193.387 91.4214 191.721 90.8785 190.165C90.559 190.353 90.2182 190.539 89.8586 190.722C89.9262 190.949 89.9707 191.174 89.9903 191.398C90.0758 192.366 89.6601 193.243 88.7203 194.077C86.4944 196.054 81.0602 197.534 75.3456 197.534C73.2345 197.534 71.0852 197.332 69.0435 196.879C65.4596 196.082 60.7729 194.175 58.8016 189.607C58.1714 188.148 57.8537 186.727 57.7603 185.278C57.4621 185.824 57.1444 186.359 56.8035 186.883C56.9299 187.618 57.1177 188.355 57.3767 189.096C57.5654 189.255 57.7514 189.418 57.9347 189.585C58.8576 190.433 59.7414 191.355 60.4578 192.484C60.8138 193.048 61.1298 193.664 61.3469 194.35C61.3905 194.486 61.4288 194.626 61.4635 194.768C65.092 197.566 70.3056 198.675 75.3304 198.675ZM88.0671 154.458C88.3866 154 88.6794 153.524 88.9428 153.031C89.0104 152.906 89.0772 152.774 89.1386 152.637C89.1003 151.873 89.0576 151.144 89.014 150.458C88.6829 150.94 88.3296 151.416 87.946 151.874C87.9905 152.692 88.0323 153.558 88.0671 154.458Z" fill="#371A45"/>
<path d="M63.5977 174.884C63.8058 174.333 64.0147 173.762 64.2168 173.165C63.1728 173.142 62.217 173.105 61.3777 173.063C61.3535 173.252 61.3293 173.442 61.3051 173.632C61.2447 174.014 61.1868 174.396 61.1247 174.779C61.8638 174.82 62.6945 174.857 63.5977 174.884Z" fill="#371A45"/>
<path d="M65.4609 160.764L68.5791 160.255L65.4609 160.764C65.4609 160.764 65.4609 160.764 65.4609 160.764Z" fill="#B9AFBE"/>
<path d="M65.4603 160.764L68.5775 160.256L70.1475 159.999C70.1205 159.86 70.1614 159.711 70.2694 159.604L70.2833 159.592C70.6038 159.278 70.9425 159.059 71.2795 158.843C71.6173 158.629 71.9639 158.46 72.3122 158.3C73.0105 157.988 73.7219 157.737 74.4412 157.509C75.163 157.285 75.8892 157.07 76.5867 156.783C77.2859 156.501 77.9738 156.195 78.6504 155.869C81.3471 154.57 83.8932 152.907 85.8602 150.792C86.3382 150.264 86.7762 149.688 87.1889 149.08C87.5999 148.476 87.9987 147.816 88.3296 147.201C88.9992 145.928 89.4877 144.523 89.8787 143.087C90.3306 141.405 90.6406 139.673 90.8513 137.918C90.8949 136.535 90.9001 135.045 90.8696 133.45C90.7538 137.732 90.1242 140.83 88.9435 142.643C88.6797 143.048 88.3819 143.438 88.0614 143.815C82.7072 150.107 69.8541 152.58 64.3318 152.897C63.2076 152.962 62.1122 152.991 61.0456 152.991C60.8592 152.991 60.6737 152.99 60.4891 152.988C60.3054 152.987 60.1226 152.984 59.9397 152.981C60.4822 154.39 60.8244 155.834 61.1152 157.291C61.285 158.163 61.4174 159.04 61.521 159.921C62.4135 159.91 63.3243 159.874 64.2508 159.809C64.2786 159.807 64.3056 159.807 64.3326 159.807C64.5451 159.807 64.7454 159.864 64.9169 159.966C65.1999 160.135 65.4045 160.422 65.4603 160.764Z" fill="#435EBE"/>
<path d="M71.8727 160.514C72.2316 160.514 72.5848 160.483 72.9324 160.433C73.7237 160.309 74.494 160.095 75.2401 159.815C75.9861 159.532 76.7136 159.204 77.4524 158.901C78.1911 158.599 78.9226 158.277 79.6436 157.928C82.5236 156.534 85.2847 154.766 87.556 152.326C87.6902 152.178 87.8211 152.027 87.948 151.876C88.332 151.417 88.6852 150.942 89.0166 150.459C88.9729 149.783 88.9277 149.148 88.8816 148.558C88.9018 148.521 88.9253 148.486 88.9455 148.448C90.0746 146.335 90.6986 142.791 90.853 137.919C90.6421 139.674 90.3325 141.407 89.8807 143.088C89.4894 144.524 89.0012 145.929 88.3312 147.201C88.0006 147.817 87.6021 148.477 87.1907 149.081C86.7784 149.689 86.3395 150.265 85.8618 150.792C83.8944 152.908 81.3483 154.571 78.6519 155.869C77.9753 156.196 77.2875 156.502 76.5883 156.783C75.8907 157.07 75.1649 157.286 74.4431 157.51C73.7237 157.738 73.0124 157.989 72.3141 158.3C71.9657 158.461 71.6189 158.63 71.2811 158.844C70.944 159.06 70.6053 159.279 70.2852 159.593L70.2715 159.605C70.1632 159.712 70.122 159.861 70.1495 160C70.1648 160.079 70.2036 160.155 70.2634 160.218C70.3192 160.275 70.3895 160.314 70.4614 160.334C70.9432 160.463 71.4136 160.514 71.8727 160.514Z" fill="#371A45"/>
<path d="M36.8596 135.481C36.8402 135.207 36.8219 134.931 36.8045 134.654C36.2823 126.052 38.2507 116.656 38.417 110.104C38.1845 111.214 37.9489 112.315 37.7367 113.416C37.4675 114.774 37.2268 116.131 37.0116 117.488C36.7943 118.843 36.626 120.202 36.4363 121.552C36.3374 122.255 36.2466 122.955 36.1477 123.658C36.3048 123.982 36.3772 124.353 36.3405 124.738C36.2375 125.818 36.1691 126.833 36.1263 127.778C36.111 128.134 36.0019 128.463 35.8275 128.745C35.7816 128.818 35.7316 128.889 35.6765 128.955C35.6296 131.624 35.8193 133.446 35.9029 134.102C36.1202 134.39 36.469 134.871 36.8596 135.481ZM38.4017 109.12C38.4058 109.12 38.4088 109.12 38.4129 109.12C38.4068 109.096 38.3997 109.077 38.3905 109.059L38.4017 109.12Z" fill="#435EBE"/>
<path d="M61.7309 162.204C62.6087 162.191 63.5028 162.153 64.4125 162.09C65.0418 162.045 65.5164 161.499 65.4717 160.87C65.47 160.835 65.4657 160.8 65.4597 160.765C65.4597 160.765 65.4597 160.765 65.4597 160.764C65.4046 160.422 65.2 160.135 64.9171 159.966C65.2275 160.152 65.4442 160.481 65.4708 160.869C65.5147 161.498 65.041 162.045 64.4108 162.088C63.502 162.152 62.6078 162.19 61.7309 162.203V162.204Z" fill="#371A45"/>
<path d="M61.73 162.204C62.6066 162.191 63.5012 162.153 64.4096 162.089C65.0399 162.045 65.5135 161.499 65.4696 160.869C65.4429 160.482 65.2268 160.153 64.9159 159.967C64.7446 159.865 64.544 159.807 64.3313 159.807C64.3054 159.807 64.277 159.808 64.2503 159.81C63.323 159.875 62.412 159.911 61.5199 159.921C61.5974 160.588 61.6594 161.256 61.7094 161.927C61.7163 162.019 61.7231 162.111 61.73 162.204Z" fill="#371A45"/>
<path d="M27.0857 194.367C32.0763 205.925 53.4276 204.023 58.8125 199.241C64.3337 194.336 54.3569 188.216 54.3569 188.216C57.8724 184.105 59.5392 178.45 60.2255 172.863C61.475 162.708 59.4869 152.78 59.4869 152.78L26.3111 131.297C26.3318 137.705 27.4016 143.183 28.3636 147.575C30.7919 158.674 30.1458 166.727 28.9083 173.148C27.1805 182.132 24.3012 187.919 27.0857 194.367Z" fill="white"/>
<path d="M28.3635 147.574C30.7923 158.673 30.146 166.726 28.9085 173.147C48.0029 179.834 59.9132 173.039 60.2256 172.862C61.475 162.707 59.4867 152.779 59.4867 152.779L46.8666 142.922L26.3106 131.296C26.3321 137.704 27.4016 143.182 28.3635 147.574Z" fill="#4A83FF"/>
<path d="M56.3623 173.432C57.2881 173.143 58.2049 172.808 59.1038 172.422C59.1494 171.99 59.1877 171.557 59.219 171.123C58.2638 171.332 57.3086 171.468 56.3623 171.536V173.432Z" fill="#435EBE"/>
<path d="M44.7622 201.903C44.8982 201.903 45.0342 201.902 45.1701 201.901C47.4558 201.86 49.7448 201.599 51.9588 201.089C53.0626 200.826 54.1471 200.503 55.1748 200.09C56.1983 199.677 57.1822 199.168 57.9402 198.54C58.7196 197.897 59.2206 197.118 59.3159 196.316C59.3352 196.163 59.3373 196.008 59.3277 195.849C56.4231 197.089 52.2971 197.887 48.035 197.887C41.7496 197.887 35.1687 196.154 31.7652 191.547H27.3651C27.5385 192.365 27.7901 193.166 28.1188 193.942C28.5556 194.917 29.1177 195.826 29.8061 196.643C30.5073 197.451 31.3381 198.151 32.2384 198.762C34.0595 199.97 36.1879 200.76 38.389 201.25C39.4896 201.503 40.618 201.654 41.7496 201.772C42.7506 201.86 43.7548 201.903 44.7622 201.903Z" fill="#B9AFBE"/>
<path d="M34.5485 149.85H34.7344C34.6882 149.706 34.642 149.554 34.5958 149.395C34.566 149.437 34.5352 149.48 34.5044 149.522C34.5198 149.632 34.5341 149.741 34.5485 149.85Z" fill="#435EBE"/>
<path d="M34.2446 149.85H34.5459C34.5315 149.741 34.5171 149.632 34.5017 149.522C34.4215 149.632 34.3351 149.741 34.2446 149.85Z" fill="#3F4694"/>
<path d="M59.1135 152.92C59.094 156.003 59.2483 159.031 59.3515 162.051C59.4243 165.072 59.4471 168.089 59.2233 171.084C59.1168 172.582 58.9234 174.07 58.6549 175.538C58.3898 177.006 58.0388 178.457 57.5769 179.861C57.1129 181.263 56.5869 182.646 55.8936 183.931C55.2101 185.219 54.4114 186.436 53.4855 187.54C53.0769 188.027 53.141 188.754 53.6289 189.163C53.668 189.196 53.7072 189.225 53.7485 189.251L53.7572 189.257C54.1929 189.531 54.6722 189.872 55.1134 190.208C55.56 190.548 55.9925 190.906 56.4033 191.28C57.2205 192.027 57.9823 192.837 58.5321 193.709C59.0831 194.577 59.4156 195.504 59.3178 196.316C59.2233 197.119 58.7212 197.898 57.9431 198.54C57.1846 199.168 56.2001 199.678 55.1775 200.09C54.1495 200.503 53.0638 200.826 51.9608 201.089C49.7461 201.599 47.4575 201.86 45.1722 201.901C44.029 201.914 42.8869 201.872 41.7523 201.772C40.62 201.654 39.492 201.503 38.3911 201.25C36.1906 200.76 34.0606 199.97 32.2404 198.762C31.3395 198.151 30.5082 197.451 29.8084 196.643C29.1194 195.826 28.5576 194.917 28.1207 193.942C27.2676 191.93 26.9416 189.758 27.1144 187.529C27.2709 185.3 27.799 183.036 28.3533 180.752C28.9129 178.464 29.4997 176.148 29.9583 173.79C30.4234 171.435 30.7744 169.045 30.9668 166.64C31.1602 164.235 31.1983 161.817 31.0896 159.41C30.9831 157.003 30.7342 154.607 30.3811 152.23C30.0148 149.864 29.4932 147.485 29.0172 145.212C28.5434 142.916 28.2772 140.599 27.9512 138.3C27.6219 135.996 27.335 133.707 26.6917 131.363L26.6906 131.36C26.633 131.151 26.4157 131.027 26.2059 131.085C26.0657 131.124 25.9647 131.234 25.9299 131.365C25.3094 133.751 25.3181 136.19 25.5452 138.583C25.7636 140.983 26.307 143.33 26.7765 145.668C27.272 148.023 27.7621 150.267 28.1218 152.576C28.4641 154.878 28.7032 157.191 28.8075 159.509C29.027 164.147 28.6304 168.785 27.7165 173.348C27.272 175.634 26.6971 177.905 26.1331 180.211C25.5767 182.519 25.0116 184.88 24.8345 187.375C24.7411 188.619 24.778 189.899 24.9736 191.162C25.1681 192.425 25.5235 193.668 26.0201 194.841C26.5461 196.027 27.2383 197.144 28.0762 198.135C28.927 199.116 29.9192 199.95 30.9744 200.664C33.1043 202.075 35.4897 202.944 37.8956 203.481C39.1019 203.757 40.3211 203.921 41.5404 204.048C42.7619 204.155 43.9855 204.2 45.207 204.186C47.6499 204.142 50.0852 203.867 52.4814 203.314C53.6778 203.028 54.8656 202.677 56.0316 202.209C57.1955 201.733 58.3496 201.165 59.4178 200.284C59.5547 200.181 59.6786 200.058 59.8014 199.937C59.9253 199.813 60.0524 199.699 60.1698 199.566C60.3991 199.292 60.6317 199.024 60.8218 198.701C61.2152 198.08 61.5032 197.34 61.589 196.569C61.6803 195.797 61.5651 195.033 61.35 194.351C61.1326 193.665 60.8164 193.049 60.461 192.485C59.7438 191.356 58.8603 190.434 57.9377 189.586C57.4737 189.165 56.9934 188.768 56.5 188.392C55.999 188.012 55.5165 187.665 54.9514 187.309L55.2231 189.026C56.2729 187.776 57.164 186.414 57.9182 184.991C58.681 183.571 59.2526 182.072 59.7514 180.563C60.2535 179.052 60.6099 177.508 60.912 175.961C61.0718 175.188 61.1837 174.41 61.3065 173.633C61.4032 172.853 61.5119 172.074 61.5836 171.294C61.914 168.173 61.952 165.035 61.7118 161.926C61.5977 160.371 61.4163 158.822 61.1174 157.292C60.812 155.761 60.4491 154.247 59.8601 152.77C59.7808 152.572 59.5547 152.475 59.3559 152.554C59.2059 152.615 59.1135 152.759 59.1124 152.911L59.1135 152.92Z" fill="#371A45"/>
<path d="M44.7427 176.792C49.83 176.792 55.4584 176.029 60.5938 173.631C61.0238 173.431 61.2085 172.922 61.0078 172.493C60.8083 172.064 60.2982 171.879 59.8691 172.079C46.6402 178.254 29.3132 172.881 29.1393 172.825C28.6889 172.682 28.2066 172.932 28.0636 173.383C27.9205 173.834 28.1703 174.316 28.6206 174.459C29.0827 174.605 36.1347 176.792 44.7427 176.792Z" fill="#371A45"/>
<path d="M37.1414 190.475C37.3594 190.475 37.5794 190.413 37.774 190.283C38.0633 190.092 44.8492 185.718 53.9301 189.345C54.5158 189.579 55.1789 189.294 55.4142 188.707C55.6484 188.121 55.3632 187.456 54.7765 187.222C44.5375 183.134 36.8287 188.167 36.5058 188.383C35.9813 188.734 35.8407 189.444 36.1921 189.968C36.4111 190.297 36.7737 190.475 37.1414 190.475Z" fill="#371A45"/>
<path d="M18.0423 151.288C18.032 151.277 18.04 151.192 18.0446 151.138L18.0653 150.949C18.0825 150.819 18.1055 150.688 18.1296 150.556C18.1848 150.293 18.2572 150.031 18.3377 149.771C18.5009 149.25 18.7354 148.755 19.0066 148.285C19.5618 147.353 20.3456 146.562 21.3157 146.065C21.5559 145.937 21.8042 145.838 22.0915 145.727C22.3697 145.614 22.6524 145.518 22.9363 145.422C23.5018 145.226 24.0788 145.062 24.6604 144.924C25.2408 144.781 25.8293 144.676 26.4178 144.593C26.9982 144.519 27.6188 144.471 28.1556 144.479H28.1786H28.2108C28.7464 144.476 29.3659 144.53 29.9452 144.609C30.5337 144.698 31.1198 144.808 31.6991 144.956C32.2784 145.099 32.8519 145.267 33.4151 145.468C33.6979 145.566 33.9795 145.665 34.2553 145.78C34.5438 145.894 34.7863 145.994 35.0231 146.124C35.9817 146.623 36.7357 147.423 37.2816 148.341C37.5448 148.809 37.7712 149.301 37.9276 149.817C38.0057 150.076 38.0735 150.336 38.1241 150.596C38.1471 150.726 38.1689 150.857 38.1839 150.984L38.2023 151.17C38.2046 151.223 38.2115 151.308 38.2011 151.314C36.8632 151.972 36.3138 153.589 36.9724 154.926C37.631 156.263 39.2482 156.813 40.5849 156.154C41.7894 155.56 42.3549 154.188 41.9733 152.944L41.2768 150.673C41.2332 150.529 41.201 150.465 41.163 150.369L41.055 150.113C40.9814 149.945 40.9033 149.785 40.8228 149.626C40.6654 149.308 40.4987 148.999 40.316 148.7C39.9516 148.103 39.5528 147.529 39.085 147.008C38.1747 145.953 37.0104 145.084 35.7116 144.592C35.3898 144.461 35.0495 144.364 34.7542 144.285C34.4496 144.201 34.1438 144.118 33.8358 144.043C33.2209 143.893 32.6037 143.754 31.9796 143.643C31.3566 143.533 30.7313 143.43 30.098 143.368C29.4578 143.304 28.8487 143.251 28.1556 143.271H28.2108C27.5166 143.257 26.9085 143.314 26.2695 143.384C25.6373 143.451 25.0144 143.559 24.3926 143.675C23.7708 143.79 23.1558 143.934 22.5432 144.089C22.2363 144.167 21.9318 144.252 21.6283 144.339C21.3341 144.42 20.9985 144.519 20.6812 144.65C19.3928 145.144 18.2584 146.022 17.3561 147.064C16.8964 147.583 16.5067 148.154 16.1493 148.747C15.9711 149.044 15.8068 149.35 15.6539 149.666C15.5757 149.823 15.4987 149.982 15.4275 150.148L15.3217 150.402C15.285 150.495 15.2551 150.56 15.2125 150.699L14.8275 151.957C14.5264 152.946 15.0827 153.993 16.0723 154.295C17.0607 154.596 18.1078 154.04 18.4089 153.05C18.602 152.42 18.4365 151.757 18.0423 151.288Z" fill="#371A45"/>
<path d="M6.55419 190.405H49.8096C52.7972 190.405 55.2207 187.982 55.2207 184.994V156.404C55.2207 153.415 52.7972 150.993 49.8096 150.993H6.55419C3.56541 150.993 1.1431 153.415 1.1431 156.404V184.994C1.1431 187.982 3.56541 190.405 6.55419 190.405Z" fill="#A34F31"/>
<path d="M50.3916 152.135C52.4239 152.135 54.0773 153.79 54.0773 155.824V185.577C54.0773 187.609 52.4239 189.262 50.3916 189.262H5.97083C3.93847 189.262 2.2851 187.609 2.2851 185.577V155.824C2.2851 153.79 3.93847 152.135 5.97083 152.135H50.3916ZM5.97083 191.548H50.3916C53.6835 191.548 56.3623 188.869 56.3623 185.577V155.824C56.3623 152.53 53.6835 149.85 50.3916 149.85H5.97083C2.67894 149.85 9.53674e-05 152.53 9.53674e-05 155.824V185.577C9.53674e-05 188.869 2.67894 191.548 5.97083 191.548Z" fill="#371A45"/>
<path d="M5.96961 189.262H41.8734C41.7791 189.04 41.7265 188.795 41.7265 188.539V170.619H5.96961C4.57985 170.619 3.30028 170.143 2.28397 169.343V172.183C3.02477 173.057 4.07047 173.664 5.25821 173.84V174.619C5.25821 175.279 5.64391 175.85 6.20226 176.119V184.353C4.56638 184.319 3.13008 183.471 2.28397 182.197V185.577C2.28397 187.609 3.937 189.262 5.96961 189.262ZM37.8375 173.892V174.619C37.8375 175.279 38.2233 175.85 38.7828 176.119V184.357H10.9287V173.892H37.8375ZM46.306 189.262H50.3896C52.4222 189.262 54.0752 187.609 54.0752 185.577V183.008C53.207 183.843 52.0279 184.357 50.7287 184.357H46.4517V188.539C46.4517 188.795 46.4002 189.04 46.306 189.262Z" fill="#7D3D38"/>
<path d="M6.30983 190.407H50.729C53.3964 190.407 55.5576 188.243 55.5576 185.579V179.528C55.5576 180.895 54.9899 182.13 54.0762 183.008V185.576C54.0762 187.609 52.4223 189.262 50.3904 189.262H46.3068C46.0223 189.932 45.3573 190.405 44.5864 190.405H43.5926C42.823 190.405 42.158 189.932 41.8735 189.262H5.96995C3.93802 189.262 2.28415 187.609 2.28415 185.576V182.197C1.77679 181.433 1.48123 180.515 1.48123 179.528V185.579C1.48123 188.243 3.64246 190.407 6.30983 190.407ZM2.28415 172.183V169.343C1.85191 169.003 1.46769 168.603 1.14258 168.157V169.064C1.14258 170.253 1.57236 171.342 2.28415 172.183Z" fill="#371A45"/>
<path d="M46.452 173.891H50.3899C51.8669 173.891 53.1904 173.228 54.0752 172.183V169.342C53.0597 170.142 51.7792 170.618 50.3899 170.618H46.452V173.891Z" fill="#923E3A"/>
<path d="M54.0763 172.182C54.789 171.341 55.2188 170.252 55.2188 169.062V168.156C54.8941 168.602 54.5097 169.001 54.0763 169.342V172.182Z" fill="#471948"/>
<path d="M1.14237 155.825V164.649C1.14237 167.316 3.30361 169.477 5.97221 169.477H50.3901C53.0587 169.477 55.2188 167.316 55.2188 164.649V155.825C55.2188 153.157 53.0587 150.994 50.3901 150.994H5.97221C3.30361 150.994 1.14237 153.157 1.14237 155.825Z" fill="#A34F31"/>
<path d="M20.5567 159.12C24.0195 159.12 26.8259 157.321 26.8259 155.104C26.8259 155.083 26.8259 155.063 26.8223 155.042H38.7828V152.531C38.7828 152.394 38.8 152.261 38.8306 152.134H30.8006C29.8357 152.451 28.6859 152.645 27.3206 152.652C27.2214 152.652 27.1223 152.652 27.0243 152.652C25.0517 152.652 23.0644 152.551 21.1922 152.134H5.96961C3.937 152.134 2.28397 153.789 2.28397 155.823V156.753C3.16926 155.707 4.49168 155.042 5.97083 155.042H14.2886C14.285 155.063 14.285 155.083 14.285 155.104C14.285 157.321 17.0939 159.12 20.5567 159.12ZM54.0752 156.753V155.823C54.0752 153.789 52.4222 152.134 50.3896 152.134H46.3537C46.4174 152.322 46.4517 152.522 46.4517 152.73V155.042H50.3896C51.8675 155.042 53.1899 155.707 54.0752 156.753Z" fill="#BF846F"/>
<path d="M50.3916 152.133C52.4239 152.133 54.0773 153.788 54.0773 155.823V164.647C54.0773 166.679 52.4239 168.333 50.3916 168.333H5.97083C3.93847 168.333 2.2851 166.679 2.2851 164.647V155.823C2.2851 153.788 3.93847 152.133 5.97083 152.133H50.3916ZM5.97083 170.618H50.3916C53.6835 170.618 56.3623 167.939 56.3623 164.647V155.823C56.3623 152.529 53.6835 149.849 50.3916 149.849H5.97083C2.67894 149.849 9.53674e-05 152.529 9.53674e-05 155.823V164.647C9.53674e-05 167.939 2.67894 170.618 5.97083 170.618Z" fill="#371A45"/>
<path d="M43.5936 190.405H44.5869C45.6136 190.405 46.4536 189.565 46.4536 188.539V152.731C46.4536 151.705 45.6136 150.865 44.5869 150.865H43.5936C42.5679 150.865 41.7278 151.705 41.7278 152.731V188.539C41.7278 189.565 42.5679 190.405 43.5936 190.405Z" fill="#BF943D"/>
<path d="M38.7854 155.407H41.729V155.042H38.7854V155.407Z" fill="#7D3D38"/>
<path d="M38.7848 155.042H41.7284V152.73C41.7284 152.522 41.7624 152.321 41.8264 152.134H38.8328C38.8018 152.261 38.7848 152.394 38.7848 152.531V155.042Z" fill="#905F60"/>
<path d="M38.8304 152.134H41.8242C41.9742 151.692 42.2873 151.322 42.6904 151.098C42.4414 150.949 42.1503 150.864 41.8412 150.864H40.4459C39.6667 150.864 39.0095 151.407 38.8304 152.134Z" fill="#371A45"/>
<path d="M41.7278 155.407H43.51V152.531C43.51 151.924 43.1809 151.39 42.6916 151.099C42.2888 151.322 41.9763 151.692 41.826 152.134C41.7622 152.322 41.7278 152.522 41.7278 152.73V155.042V155.407Z" fill="#906940"/>
<path d="M43.5098 176.237C44.2433 176.063 44.7913 175.401 44.7913 174.618V167.148C44.7913 166.365 44.2433 165.702 43.5098 165.529V176.237Z" fill="#A66F42"/>
<path d="M43.5936 190.405H44.5869C45.6136 190.405 46.4536 189.565 46.4536 188.539V152.731C46.4536 151.705 45.6136 150.865 44.5869 150.865H43.5936C42.5679 150.865 41.7278 151.705 41.7278 152.731V188.539C41.7278 189.565 42.5679 190.405 43.5936 190.405Z" fill="#EC1C24"/>
<path d="M11.0216 190.405H12.0159C13.0421 190.405 13.8816 189.565 13.8816 188.539V152.731C13.8816 151.705 13.0421 150.865 12.0159 150.865H11.0216C9.99531 150.865 9.15587 151.705 9.15587 152.731V188.539C9.15587 189.565 9.99531 190.405 11.0216 190.405Z" fill="#EC1C24"/>
<path d="M44.5869 152.008C44.9797 152.008 45.3102 152.339 45.3102 152.731V188.539C45.3102 188.931 44.9797 189.262 44.5869 189.262H43.5925C43.2006 189.262 42.8701 188.931 42.8701 188.539V152.731C42.8701 152.339 43.2006 152.008 43.5925 152.008H44.5869ZM43.5925 191.548H44.5869C46.2453 191.548 47.595 190.198 47.595 188.539V152.731C47.595 151.072 46.2453 149.723 44.5869 149.723H43.5925C41.9341 149.723 40.5844 151.072 40.5844 152.731V188.539C40.5844 190.198 41.9341 191.548 43.5925 191.548Z" fill="#371A45"/>
<path d="M12.0139 152.008C12.4052 152.008 12.7371 152.339 12.7371 152.731V188.539C12.7371 188.932 12.4052 189.262 12.0139 189.262H11.0197C10.6272 189.262 10.2966 188.932 10.2966 188.539V152.731C10.2966 152.339 10.6272 152.008 11.0197 152.008H12.0139ZM11.0197 191.548H12.0139C13.6731 191.548 15.0229 190.198 15.0229 188.539V152.731C15.0229 151.072 13.6731 149.722 12.0139 149.722H11.0197C9.36055 149.722 8.01066 151.072 8.01066 152.731V188.539C8.01066 190.198 9.36055 191.548 11.0197 191.548Z" fill="#371A45"/>
<path d="M9.90697 176.233H13.1296C14.1558 176.233 14.9954 175.394 14.9954 174.368V167.297C14.9954 166.271 14.1558 165.432 13.1296 165.432H9.90697C8.88073 165.432 8.04118 166.271 8.04118 167.297V174.368C8.04118 175.394 8.88073 176.233 9.90697 176.233Z" fill="#FFCE00"/>
<path d="M13.1286 166.574C13.5198 166.574 13.8523 166.905 13.8523 167.297V174.368C13.8523 174.76 13.5198 175.091 13.1286 175.091H9.90615C9.515 175.091 9.18366 174.76 9.18366 174.368V167.297C9.18366 166.905 9.515 166.574 9.90615 166.574H13.1286ZM9.90615 177.376H13.1286C14.7877 177.376 16.137 176.026 16.137 174.368V167.297C16.137 165.639 14.7877 164.289 13.1286 164.289H9.90615C8.24707 164.289 6.8978 165.639 6.8978 167.297V174.368C6.8978 176.026 8.24707 177.376 9.90615 177.376Z" fill="#371A45"/>
<path d="M42.6491 176.286H45.8709C46.8978 176.286 47.7368 175.446 47.7368 174.42V167.35C47.7368 166.323 46.8978 165.484 45.8709 165.484H42.6491C41.6232 165.484 40.7832 166.323 40.7832 167.35V174.42C40.7832 175.446 41.6232 176.286 42.6491 176.286Z" fill="#FFCE00"/>
<path d="M45.8264 166.574C46.2186 166.574 46.5491 166.905 46.5491 167.297V174.368C46.5491 174.76 46.2186 175.09 45.8264 175.09H42.6037C42.2124 175.09 41.8809 174.76 41.8809 174.368V167.297C41.8809 166.905 42.2124 166.574 42.6037 166.574H45.8264ZM42.6037 177.376H45.8264C47.485 177.376 48.834 176.026 48.834 174.368V167.297C48.834 165.639 47.485 164.289 45.8264 164.289H42.6037C40.945 164.289 39.595 165.639 39.595 167.297V174.368C39.595 176.026 40.945 177.376 42.6037 177.376Z" fill="#371A45"/>
<path d="M12.2069 135.042C12.4419 149.755 19.0136 151.55 27.3182 151.51C34.2541 151.473 34.7161 146.162 34.7161 146.162C34.7161 146.162 37.2624 145.515 37.9723 142.614C38.6159 139.995 35.8927 136.019 35.056 134.876C34.9035 134.671 34.8139 134.558 34.8139 134.558C34.8139 134.558 34.5288 132.824 34.5265 129.831C34.5265 129.249 34.5358 128.618 34.5602 127.944C34.7348 123.38 35.589 116.785 38.4297 109.258L31.5763 84.4699C19.4268 97.5558 13.999 109.902 12.5315 127.338C12.464 128.128 12.4024 128.93 12.3535 129.742C12.3291 130.131 12.3069 130.523 12.286 130.919C12.2092 132.395 12.1824 133.768 12.2069 135.042Z" fill="white"/>
<path d="M26.9971 150.368C27.1009 150.368 27.2047 150.367 27.3097 150.367C32.9687 150.339 33.5304 146.493 33.5742 146.064C33.6158 145.587 33.9607 145.184 34.4209 145.058C34.4993 145.036 36.3311 144.509 36.8617 142.343C36.9874 141.83 36.9216 141.191 36.7336 140.499C36.4868 140.617 36.2284 140.662 35.9769 140.662C35.1787 140.662 34.4578 140.209 34.4578 140.209C34.4578 140.209 34.2513 147.397 27.3155 147.433C27.2266 147.434 27.1367 147.434 27.049 147.434C21.2343 147.434 16.3032 146.468 13.8544 140.681C14.4046 143.625 15.392 145.826 16.8269 147.331C19.3334 149.96 23.1722 150.368 26.9971 150.368Z" fill="#B9AFBE"/>
<path d="M12.3538 129.744C20.4078 129.266 30.2012 129.628 34.5265 129.833C34.523 125.309 35.1695 117.902 38.4297 109.26L36.2078 97.6794L31.5767 84.4716C18.8754 98.1526 13.5211 111.022 12.3538 129.744Z" fill="#4A83FF"/>
<path d="M14.3294 121.68C14.9922 121.648 15.6802 121.623 16.3913 121.606C18.0044 108.066 22.3099 97.5881 30.7551 87.1124C30.7505 87.1078 30.7448 87.1032 30.7402 87.0986C21.325 97.7503 16.3407 108.106 14.3294 121.68Z" fill="#C8DAFF"/>
<path d="M35.8476 125.602C36.082 124.253 36.2472 122.902 36.4351 121.552C36.6261 120.201 36.7934 118.842 37.0113 117.487C37.226 116.131 37.4666 114.773 37.7371 113.416C37.9984 112.055 38.2957 110.696 38.5807 109.318C38.5993 109.229 38.5425 109.141 38.4537 109.123C38.3814 109.107 38.3102 109.142 38.2751 109.203C37.5812 110.434 36.9813 111.715 36.433 113.02C35.8941 114.328 35.4139 115.664 35.004 117.024C34.5951 118.384 34.2307 119.762 33.987 121.166C33.7423 122.567 33.5709 123.984 33.5698 125.412C33.5698 126.045 34.083 126.558 34.7159 126.559C35.2828 126.559 35.7526 126.149 35.8466 125.609L35.8476 125.602Z" fill="#371A45"/>
<path d="M27.0269 152.653C27.1254 152.653 27.2251 152.653 27.3237 152.652C33.5569 152.622 35.2625 148.687 35.7058 147.007C36.7041 146.552 38.4659 145.414 39.0841 142.887C39.87 139.678 36.7909 135.281 35.9041 134.102C35.7997 133.28 35.5287 130.632 35.7633 126.78C35.802 126.15 35.3223 125.609 34.6924 125.57C34.0625 125.533 33.5206 126.01 33.483 126.641C33.1804 131.588 33.666 134.617 33.686 134.744C33.7176 134.934 33.7974 135.113 33.9159 135.265C35.2965 137.021 37.3164 140.496 36.8648 142.344C36.3346 144.509 34.5024 145.037 34.4238 145.058C33.9628 145.185 33.6179 145.588 33.5769 146.064C33.5335 146.494 32.9716 150.339 27.3119 150.367C23.3848 150.389 19.4048 150.032 16.8289 147.331C14.1123 144.483 12.9991 139.135 13.4273 130.981C14.436 111.702 19.7602 98.8806 32.4156 85.2498C32.8449 84.7876 32.8179 84.0651 32.3558 83.6358C31.8936 83.2065 31.1699 83.2335 30.7406 83.6956C17.6805 97.7628 12.1851 110.987 11.1446 130.862C10.6766 139.8 11.9575 145.534 15.1762 148.908C18.2787 152.161 22.6868 152.653 27.0269 152.653Z" fill="#371A45"/>
<path d="M33.821 139.88L33.5763 146.032L33.5752 146.054C33.5505 146.687 34.043 147.22 34.676 147.246C35.3101 147.271 35.8429 146.778 35.8688 146.145C35.8708 146.084 35.8677 146.016 35.8605 145.957L35.0953 139.817C35.0509 139.466 34.7318 139.218 34.3817 139.261C34.0657 139.301 33.8334 139.563 33.821 139.87V139.88Z" fill="#371A45"/>
<path d="M125.172 75.075C126.514 70.4974 121.872 66.7523 121.872 66.7523C121.872 66.7523 126.06 59.2238 122.794 57.1828C121.045 56.0898 116.191 61.2424 115.064 64.6191C113.936 67.9947 113.934 71.2411 113.934 71.2411" fill="white"/>
<path d="M125.355 75.1304C125.449 74.9459 125.542 74.7569 125.628 74.5622C125.67 74.4644 125.718 74.3665 125.755 74.2652C125.786 74.164 125.812 74.0604 125.839 73.9558C125.887 73.7477 125.955 73.535 125.986 73.3201L126.041 72.6653C126.068 71.7877 125.915 70.8944 125.621 70.064C125.321 69.2382 124.899 68.4675 124.403 67.7598C124.152 67.4065 123.885 67.0678 123.599 66.7438C123.461 66.5773 123.305 66.4243 123.154 66.2679C122.992 66.1092 122.852 65.972 122.646 65.7953L122.949 67.3525C123.579 66.2206 124.059 65.1056 124.455 63.8973C124.838 62.6934 125.155 61.4445 125.186 60.0449C125.196 59.3495 125.113 58.5867 124.782 57.8171C124.711 57.6247 124.585 57.4391 124.482 57.2546C124.347 57.0824 124.23 56.8945 124.065 56.7449L123.827 56.5154L123.566 56.3185C123.447 56.215 123.063 55.9911 122.779 55.9416C122.161 55.7975 121.672 55.9078 121.276 56.0237C120.877 56.1508 120.534 56.3106 120.227 56.4861C119.605 56.8338 119.085 57.2354 118.587 57.6529C117.601 58.4945 116.744 59.4227 115.988 60.4398C115.605 60.9449 115.256 61.4771 114.937 62.0363C114.613 62.5955 114.328 63.1839 114.098 63.8264C114.042 63.985 113.984 64.1605 113.939 64.3136L113.814 64.7692C113.733 65.073 113.67 65.3802 113.607 65.6873C113.494 66.3028 113.418 66.9216 113.383 67.5404C113.33 68.7825 113.389 70.0224 113.744 71.2431C113.774 71.3478 113.884 71.4085 113.989 71.377C114.053 71.359 114.1 71.3118 114.121 71.2533L114.125 71.2431C114.526 70.0877 114.855 68.9603 115.204 67.8622C115.381 67.3131 115.549 66.7697 115.732 66.2353C115.823 65.9675 115.913 65.7008 116.008 65.4387L116.15 65.0438C116.199 64.9155 116.243 64.812 116.294 64.6938C116.505 64.2337 116.771 63.7656 117.056 63.3043C117.346 62.8453 117.666 62.3941 117.997 61.9497C118.67 61.071 119.405 60.2204 120.201 59.489C120.597 59.129 121.013 58.7881 121.42 58.5417C121.622 58.4123 121.822 58.3201 121.987 58.2604C122.151 58.1985 122.271 58.2042 122.235 58.1985C122.228 58.1929 122.218 58.1862 122.197 58.1805C122.195 58.1817 122.17 58.1547 122.192 58.1715L122.239 58.2075L122.338 58.2739C122.363 58.302 122.39 58.3291 122.419 58.3549C122.483 58.3988 122.513 58.4764 122.57 58.5293C122.604 58.6081 122.661 58.6621 122.689 58.751C122.838 59.0716 122.906 59.5172 122.887 60.0044C122.856 60.9855 122.551 62.0611 122.164 63.0973C121.966 63.6182 121.75 64.1369 121.516 64.65C121.292 65.1596 121.03 65.6884 120.795 66.1542L120.761 66.2218C120.497 66.7438 120.651 67.3682 121.098 67.7125C121.196 67.7879 121.344 67.9173 121.468 68.0298L121.853 68.3955C122.111 68.6408 122.357 68.9018 122.587 69.1718C123.057 69.7096 123.477 70.2801 123.848 70.8786C124.213 71.4828 124.49 72.123 124.706 72.8071C124.913 73.4968 124.972 74.2247 124.989 75.0224L124.99 75.046C124.992 75.1529 125.08 75.2373 125.187 75.2351C125.26 75.2339 125.324 75.1912 125.355 75.1304Z" fill="#371A45"/>
<path d="M13.3484 135.163C16.3687 134.863 20.0646 134.704 23.853 134.704C27.2365 134.704 30.6929 134.831 33.8069 135.097C33.749 134.987 33.7074 134.868 33.6877 134.744C33.6715 134.647 33.3835 132.845 33.3847 129.781C30.5124 129.656 26.1214 129.508 21.4596 129.508C19.1924 129.508 16.8627 129.543 14.6105 129.633C14.231 129.664 13.8609 129.697 13.5 129.732C13.4734 130.146 13.4491 130.561 13.4282 130.982C13.3496 132.468 13.323 133.861 13.3484 135.163Z" fill="#B9AFBE"/>
<path d="M33.3833 129.78C33.3833 129.779 33.3833 129.78 33.3833 129.779C30.51 129.655 26.1213 129.506 21.4581 129.506C19.1925 129.506 16.8615 129.542 14.6109 129.631C14.6109 129.631 14.6097 129.631 14.6086 129.632C16.8603 129.542 19.1914 129.507 21.4581 129.507C26.1202 129.507 30.5111 129.655 33.3833 129.78Z" fill="#435EBE"/>
<path d="M33.3811 129.78C33.3811 129.736 33.3811 129.691 33.3811 129.646C30.378 129.403 27.0808 129.288 23.8491 129.288C20.5749 129.288 17.3684 129.406 14.6089 129.632C16.8595 129.542 19.1905 129.507 21.456 129.507C26.1181 129.507 30.5078 129.656 33.3811 129.78Z" fill="#9597BE"/>
<path d="M12.9542 135.19C13.0228 135.19 13.0927 135.187 13.1625 135.18C13.2242 135.174 13.2847 135.167 13.3464 135.162C13.3219 133.86 13.3487 132.467 13.4267 130.98C13.4488 130.56 13.472 130.145 13.4988 129.731C13.3859 129.742 13.2742 129.753 13.1625 129.764C13.0927 129.771 13.0228 129.775 12.9542 129.775C12.7459 129.775 12.5457 129.743 12.3572 129.684C12.356 129.704 12.3548 129.723 12.3537 129.742C12.3292 130.132 12.3071 130.524 12.2862 130.919C12.2094 132.395 12.1826 133.768 12.207 135.042C12.4375 135.139 12.69 135.19 12.9542 135.19ZM34.1019 135.114C34.444 135.114 34.771 135.029 35.0562 134.877C34.9037 134.672 34.8141 134.558 34.8141 134.558C34.8141 134.558 34.529 132.824 34.5266 129.832C34.5266 129.773 34.5266 129.714 34.5266 129.654C34.3905 129.683 34.2497 129.698 34.1065 129.698C34.0483 129.698 33.989 129.696 33.9296 129.69C33.7493 129.675 33.5665 129.66 33.3838 129.645C33.3838 129.69 33.3838 129.735 33.3838 129.779C33.3838 129.78 33.3838 129.779 33.3838 129.78C33.3815 132.844 33.6701 134.646 33.6864 134.743C33.7062 134.866 33.7481 134.986 33.8063 135.096C33.847 135.099 33.8889 135.103 33.9296 135.107C33.9878 135.112 34.0449 135.114 34.1019 135.114Z" fill="#371A45"/>
<path d="M13.1616 129.765C18.9242 129.176 27.2358 129.109 33.9289 129.69C35.0715 129.79 36.0747 128.925 36.1263 127.778C36.1685 126.834 36.2376 125.818 36.3408 124.738C36.4439 123.654 35.6798 122.678 34.6004 122.534C27.8253 121.633 19.175 121.358 13.2307 121.744C12.2627 121.806 11.4787 122.554 11.3626 123.516C11.2021 124.843 11.0638 126.196 10.9489 127.576C10.8423 128.84 11.9006 129.894 13.1616 129.765Z" fill="white"/>
<path d="M35.6773 128.954C35.7313 128.888 35.7813 128.817 35.8271 128.744C35.7813 128.817 35.7313 128.888 35.6773 128.954Z" fill="#3F4694"/>
<path d="M11.2642 128.85V128.85C11.2513 128.83 11.2384 128.809 11.2267 128.789C11.2384 128.809 11.2513 128.83 11.2642 128.85Z" fill="#B9AFBE"/>
<path d="M12.3549 129.684C12.3549 129.684 12.3549 129.684 12.3549 129.684C11.9023 129.542 11.5176 129.242 11.2639 128.85V128.851C11.5164 129.243 11.9023 129.543 12.3549 129.684ZM34.5239 129.655C34.9811 129.558 35.3869 129.307 35.6746 128.955V128.954C35.3869 129.306 34.9811 129.557 34.5239 129.654V129.655Z" fill="#371A45"/>
<path d="M13.4973 129.731C13.859 129.696 14.2288 129.663 14.6079 129.633C14.6033 129.633 14.5987 129.633 14.5952 129.633C14.2196 129.664 13.8544 129.696 13.4973 129.731V129.731Z" fill="#8C7B94"/>
<path d="M14.594 129.632C14.5986 129.632 14.6032 129.632 14.6067 129.632C14.6078 129.631 14.609 129.631 14.6101 129.631C14.6055 129.631 14.6021 129.632 14.5963 129.632C14.5963 129.632 14.5952 129.632 14.594 129.632Z" fill="#3F4694"/>
<path d="M33.3833 129.645C33.3833 129.645 33.3833 129.644 33.3833 129.644C30.3823 129.401 27.086 129.286 23.8553 129.286C20.5739 129.286 17.3627 129.405 14.5984 129.632C14.603 129.632 14.6075 129.631 14.6121 129.631C17.3719 129.405 20.5785 129.287 23.8518 129.287C27.0837 129.287 30.3812 129.403 33.3833 129.645Z" fill="#746B94"/>
<path d="M12.9545 129.776C13.0231 129.776 13.0917 129.772 13.1626 129.765C13.2742 129.754 13.3858 129.743 13.4986 129.732V129.731C13.3858 129.742 13.2742 129.753 13.1626 129.765C13.0917 129.772 13.0219 129.775 12.9533 129.775C12.7463 129.775 12.5464 129.743 12.3568 129.684C12.3568 129.684 12.3568 129.684 12.3568 129.685C12.5464 129.744 12.7463 129.776 12.9545 129.776ZM34.106 129.699C34.2501 129.699 34.3897 129.684 34.5269 129.655V129.655C34.3908 129.683 34.2513 129.698 34.1083 129.698C34.049 129.698 33.9897 129.696 33.9292 129.69C33.749 129.675 33.5665 129.659 33.3839 129.645C33.3839 129.645 33.3839 129.645 33.3839 129.646C33.5665 129.661 33.749 129.676 33.9292 129.691C33.9885 129.697 34.0478 129.699 34.106 129.699Z" fill="#371A45"/>
<path d="M11.0734 126.192C11.1319 125.578 11.1963 124.97 11.2642 124.366C11.1951 124.97 11.1319 125.578 11.0734 126.192Z" fill="#B9AFBE"/>
<path d="M12.9803 121.774C13.0626 121.758 13.146 121.748 13.2306 121.742C13.4311 121.729 13.6339 121.717 13.8413 121.705C13.6362 121.717 13.4311 121.729 13.2318 121.742C13.146 121.746 13.0626 121.758 12.9803 121.774Z" fill="#371A45"/>
<path d="M12.9523 129.774C13.0214 129.774 13.0917 129.771 13.1608 129.764C13.2721 129.752 13.3846 129.741 13.4971 129.73C13.8544 129.696 14.2199 129.663 14.5948 129.632H14.5971C17.362 129.405 20.5732 129.286 23.8547 129.286C27.0846 129.286 30.3813 129.401 33.3828 129.644C33.5656 129.658 33.7472 129.673 33.9288 129.689C33.9885 129.694 34.0483 129.696 34.1069 129.696C34.2498 129.696 34.3904 129.682 34.5251 129.653C34.9832 129.557 35.3885 129.306 35.6767 128.953C35.7306 128.887 35.781 128.817 35.8267 128.744C36.0012 128.463 36.109 128.133 36.1242 127.776C36.1453 127.28 36.1758 126.762 36.2168 126.226C33.1684 125.974 29.8073 125.853 26.5152 125.853C22.6492 125.853 18.8803 126.019 15.8261 126.33C15.7558 126.337 15.6867 126.341 15.6175 126.341C14.4495 126.341 13.5135 125.334 13.6119 124.14C13.6822 123.319 13.7583 122.508 13.8415 121.705C13.6341 121.717 13.4314 121.728 13.2311 121.741C13.1456 121.747 13.0624 121.758 12.9804 121.774C12.131 121.938 11.4691 122.638 11.3637 123.515C11.3285 123.797 11.2957 124.08 11.2629 124.365C11.195 124.968 11.1305 125.576 11.072 126.191C11.0286 126.649 10.9876 127.11 10.9501 127.574C10.9114 128.019 11.0181 128.438 11.2278 128.789C11.2395 128.81 11.2524 128.83 11.2653 128.85C11.5195 129.242 11.9037 129.541 12.356 129.683C12.5446 129.742 12.7449 129.774 12.9523 129.774Z" fill="#B9AFBE"/>
<path d="M13.0462 128.627C12.6938 128.661 12.458 128.489 12.3496 128.383C12.1598 128.196 12.0655 127.936 12.0867 127.67C12.1999 126.316 12.3378 124.964 12.4969 123.652C12.5476 123.233 12.8883 122.909 13.3056 122.881C19.4365 122.484 27.9344 122.799 34.4496 123.665C34.9176 123.727 35.25 124.15 35.204 124.628C35.105 125.668 35.0307 126.71 34.9848 127.725C34.9741 127.961 34.8704 128.178 34.6912 128.334C34.5073 128.495 34.2692 128.573 34.0276 128.55C27.4841 127.982 19.0522 128.013 13.0462 128.627ZM12.9543 130.917C13.0616 130.917 13.17 130.911 13.2785 130.9C19.1559 130.3 27.4157 130.27 33.8307 130.827C34.6853 130.901 35.5506 130.62 36.1965 130.053C36.8484 129.483 37.2292 128.693 37.2681 127.829C37.3129 126.851 37.3824 125.847 37.4791 124.845C37.6406 123.137 36.4429 121.624 34.7513 121.4C28.1006 120.516 19.4223 120.194 13.157 120.602C11.6435 120.7 10.4116 121.867 10.2277 123.378C10.0662 124.718 9.92479 126.097 9.80927 127.479C9.73029 128.426 10.0733 129.349 10.7488 130.013C11.3429 130.596 12.1327 130.917 12.9543 130.917Z" fill="#371A45"/>
<path d="M33.4009 75.337C40.9624 81.8837 72.8261 116.167 72.8261 116.167L81.9988 81.9018C79.8941 76.543 77.4566 71.1555 74.6776 65.8466L35.9587 68.3128C35.0557 70.6769 34.2039 73.0208 33.4009 75.337Z" fill="white"/>
<path d="M33.4009 75.337C40.9624 81.8837 72.8261 116.167 72.8261 116.167L81.9988 81.9018C79.8941 76.543 77.4566 71.1555 74.6776 65.8466L35.9587 68.3128C35.0557 70.6769 34.2039 73.0208 33.4009 75.337Z" fill="white"/>
<path d="M80.7987 81.9688L72.2569 113.878C66.1134 107.286 42.1936 81.7118 34.7332 74.9883C35.3863 73.1221 36.0694 71.2496 36.7675 69.406L74.0086 67.0334C76.4989 71.847 78.7805 76.8661 80.7987 81.9688ZM72.8265 117.309C72.9186 117.309 73.0118 117.298 73.1028 117.275C73.5064 117.174 73.8233 116.864 73.9304 116.461L83.1039 82.1968C83.166 81.9613 83.1531 81.7108 83.0632 81.4838C80.8897 75.9508 78.409 70.5119 75.6906 65.3172C75.4807 64.9168 75.0492 64.678 74.606 64.7059L35.8874 67.1716C35.442 67.2005 35.0533 67.4863 34.8927 67.9039C34.0051 70.2282 33.14 72.6029 32.3231 74.9626C32.17 75.4037 32.3017 75.8951 32.6539 76.2002C40.0823 82.6315 71.6713 116.602 71.9903 116.944C72.2088 117.18 72.5139 117.309 72.8265 117.309Z" fill="#371A45"/>
<path d="M80.7987 81.9688L72.2569 113.878C67.8126 109.114 53.7879 94.1173 43.745 83.8584C39.6165 79.6412 36.5908 76.6627 34.7332 74.9893C35.3863 73.1221 36.0694 71.2496 36.7675 69.406L74.0086 67.0334C76.4989 71.847 78.7805 76.8661 80.7987 81.9688ZM72.8265 117.309C72.9186 117.309 73.0118 117.298 73.1028 117.275C73.5064 117.174 73.8233 116.864 73.9304 116.461L83.1039 82.1968C83.166 81.9613 83.1531 81.7108 83.0632 81.4838C80.8897 75.9508 78.409 70.5119 75.6906 65.3172C75.4807 64.9168 75.0492 64.678 74.606 64.7059L35.8874 67.1716C35.442 67.2005 35.0533 67.4863 34.8927 67.9039C34.0051 70.2282 33.14 72.6029 32.3231 74.9626C32.17 75.4037 32.3017 75.8951 32.6539 76.2002C34.3799 77.6948 37.5619 80.8093 42.1122 85.458C54.1102 97.7135 71.8126 116.754 71.9903 116.944C72.2088 117.18 72.5139 117.309 72.8265 117.309Z" fill="#371A45"/>
<path d="M71.1655 88.2486L73.3011 91.0848C73.7031 91.6189 73.7831 92.3289 73.5095 92.9384L72.0244 96.2491C71.7406 96.8809 71.1255 97.2987 70.4341 97.3304L68.0575 97.4383C67.502 97.4634 66.966 97.2355 66.5975 96.8186L64.0878 93.9675C63.5332 93.3376 63.4774 92.4117 63.952 91.7194L66.2848 88.3156C66.6263 87.8159 67.1921 87.5182 67.797 87.5182H69.7008C70.2768 87.5182 70.8193 87.7889 71.1655 88.2486Z" fill="#EC1C24"/>
<path d="M70.2537 88.9358L72.3894 91.7717C72.5403 91.9733 72.5703 92.2405 72.4672 92.4711L70.9821 95.7815C70.8743 96.0215 70.6456 96.1771 70.3821 96.1884L68.0064 96.2971C67.7973 96.3093 67.5957 96.2212 67.456 96.0627L64.9462 93.2127C64.7372 92.9746 64.7165 92.6258 64.8947 92.3652L67.2273 88.9611C67.3557 88.7726 67.5695 88.6601 67.7982 88.6601H69.7015C69.9171 88.6601 70.1243 88.7632 70.2537 88.9358ZM67.9726 98.5828C68.0186 98.5828 68.0645 98.5818 68.1104 98.58L70.4871 98.4721C71.6159 98.4206 72.605 97.7474 73.0672 96.7162L74.5523 93.4068C74.9967 92.4167 74.8673 91.2636 74.2148 90.3973L72.08 87.5614H72.0791C71.5203 86.8188 70.6315 86.3754 69.7015 86.3754H67.7982C66.8157 86.3754 65.8969 86.8592 65.3419 87.6692L63.0102 91.0733C62.2395 92.1983 62.3305 93.6993 63.2315 94.723L65.7413 97.5731C66.3113 98.22 67.1167 98.5828 67.9726 98.5828Z" fill="#371A45"/>
<path d="M71.7469 160.757C72.2765 160.757 72.752 160.386 72.8648 159.847C77.716 136.541 73.9867 116.159 73.9489 115.956C73.832 115.336 73.2348 114.927 72.615 115.045C71.9952 115.161 71.5865 115.758 71.7026 116.379C71.7405 116.577 75.3819 136.537 70.6274 159.381C70.4985 159.999 70.895 160.604 71.5124 160.733C71.5914 160.749 71.6696 160.757 71.7469 160.757Z" fill="#371A45"/>
<path d="M54.9878 98.8562C53.0036 96.7657 50.9755 94.6377 48.9798 92.5577C43.0396 90.832 37.4912 87.9599 32.6598 84.1093C32.788 84.4918 32.7078 84.9315 32.4129 85.2494C32.2753 85.3974 32.1398 85.5453 32.0033 85.6933L33.2612 89.2782C33.2612 89.2792 33.2622 89.2792 33.2633 89.2792C39.6005 94.3668 47.1217 97.6234 54.9878 98.8562Z" fill="#435EBE"/>
<path d="M30.6578 83.7839C30.6851 83.7535 30.7125 83.7251 30.7408 83.6947C30.9656 83.452 31.2713 83.3291 31.578 83.3291C31.6253 83.3291 31.6715 83.3323 31.7188 83.3375C31.473 83.1306 31.2282 82.9216 30.9856 82.7094C30.8753 83.0686 30.766 83.4268 30.6578 83.7839Z" fill="#371A45"/>
<path d="M33.2627 89.2781L32.005 85.6931C31.6796 86.0479 31.3583 86.4017 31.0434 86.7565C30.9468 86.8751 30.8502 86.9938 30.7547 87.1113C31.5672 87.8672 32.405 88.5905 33.2627 89.2781Z" fill="#435EBE"/>
<path d="M30.7533 87.1121C30.8478 86.9945 30.9444 86.8758 31.041 86.7572C30.9402 86.8706 30.8384 86.985 30.7376 87.0984C30.7428 87.1037 30.7481 87.1079 30.7533 87.1121Z" fill="#9597BE"/>
<path d="M30.739 87.0984C30.8402 86.9845 30.9415 86.8705 31.0428 86.7566C31.3582 86.4021 31.679 86.0477 32.005 85.6932C32.141 85.5455 32.2771 85.3967 32.4143 85.249C32.7097 84.9326 32.7899 84.4926 32.6612 84.1097C32.3447 83.8565 32.0292 83.598 31.718 83.3375C31.6716 83.3322 31.6252 83.329 31.5777 83.329C31.2717 83.329 30.9658 83.4514 30.74 83.694C30.7126 83.7246 30.6852 83.7542 30.6577 83.7837C30.4014 84.6287 30.1524 85.4695 29.9097 86.3061L29.9129 86.3082C30.1851 86.5751 30.4604 86.8389 30.739 87.0984Z" fill="#371A45"/>
<path d="M86.2028 92.6023C86.2871 92.5506 86.3714 92.4979 86.4557 92.4452C87.154 92.0045 87.84 91.5533 88.5048 91.0887C89.8709 90.1327 91.1728 89.1153 92.4077 88.0405C94.1905 86.4848 95.8344 84.8141 97.3308 83.0438C94.5373 84.3964 91.557 85.5287 88.3353 86.4627C87.9377 86.7281 87.5152 87.0021 87.0592 87.2894C86.2602 87.7866 85.4459 88.2608 84.6182 88.7101C85.1806 90.0177 85.7745 91.3387 86.2028 92.6023Z" fill="#435EBE"/>
<path d="M88.3364 86.4617C91.5593 85.5283 94.5383 84.3957 97.3328 83.0437C97.9311 82.3347 98.5061 81.6111 99.0569 80.8719C96.7694 82.121 94.2168 83.2788 91.3145 84.3015C90.6084 84.8561 89.8886 85.3894 89.163 85.8964C88.8979 86.0819 88.624 86.2703 88.3364 86.4617Z" fill="#371A45"/>
<path d="M79.3957 96.0457C79.5767 95.9727 79.7576 95.8979 79.9386 95.8213C80.2876 95.6745 80.6338 95.5241 80.9791 95.3653C82.6372 94.6239 84.264 93.7718 85.8565 92.8098C85.9738 92.7415 86.0892 92.6723 86.2046 92.6021C85.7762 91.3382 85.1826 90.0181 84.6203 88.7099C84.3434 88.8604 84.0655 89.0081 83.7857 89.153C82.9216 89.5999 82.0454 90.0208 81.16 90.4114C81.064 90.4538 80.9671 90.4963 80.8701 90.5378L79.3957 96.0457Z" fill="#435EBE"/>
<path d="M62.1504 99.4167C62.8514 99.4167 63.5532 99.4003 64.256 99.3684C65.134 99.3255 66.0138 99.2607 66.8964 99.1722C69.3104 98.9184 71.7181 98.4767 74.0974 97.8306C74.9919 97.5887 75.8827 97.3186 76.768 97.021L78.2209 91.5953C77.0883 92.0078 75.9328 92.3793 74.7674 92.7051C74.7245 92.9442 74.6533 93.1797 74.551 93.4079L73.0661 96.718C72.6034 97.7493 71.614 98.422 70.485 98.4731L68.1093 98.5808C68.0628 98.5835 68.0172 98.5844 67.9715 98.5844C67.1154 98.5844 66.3095 98.2212 65.74 97.575L63.2301 94.7239C63.1453 94.6281 63.0686 94.5286 62.9983 94.4245C62.7154 94.43 62.4324 94.4328 62.1504 94.4328C59.0856 94.4328 56.0583 94.1343 53.1048 93.5584C54.9357 95.4759 56.7656 97.4025 58.5389 99.2744C59.7382 99.3693 60.9429 99.4167 62.1504 99.4167Z" fill="#B9AFBE"/>
<path d="M58.539 99.2742C56.7661 97.4011 54.9361 95.4745 53.1051 93.5573C53.1033 93.5563 53.1005 93.5554 53.0986 93.5554C54.9286 95.4726 56.7586 97.3992 58.5333 99.2742C58.5352 99.2742 58.538 99.2742 58.539 99.2742ZM54.9905 98.8577C53.0048 96.7651 50.9778 94.6378 48.9826 92.5583C48.9817 92.5574 48.9808 92.5574 48.9798 92.5574C50.9759 94.6387 53.0038 96.7661 54.9886 98.8568C54.9896 98.8577 54.9896 98.8577 54.9905 98.8577ZM76.768 97.0202L78.2209 91.5941L76.768 97.0202Z" fill="#371A45"/>
<path d="M58.5341 99.2742C56.7604 97.3992 54.9295 95.4727 53.0995 93.5565C51.7103 93.2845 50.3371 92.9515 48.9836 92.5585C50.9787 94.6379 53.0057 96.7661 54.9914 98.8577C56.1657 99.0416 57.3476 99.1813 58.5341 99.2742ZM76.7693 97.0203C77.651 96.723 78.5271 96.3984 79.3956 96.0448L80.8701 90.5372C80.7078 90.6076 80.5446 90.677 80.3805 90.7464C80.3796 90.7464 80.3777 90.7473 80.3758 90.7483C79.6695 91.0465 78.9501 91.3288 78.2222 91.5943L76.7693 97.0203Z" fill="#371A45"/>
<path d="M67.9677 96.2996C67.9811 96.2996 67.9936 96.2996 68.0062 96.2987L70.3814 96.1904C70.6444 96.1779 70.8734 96.0222 70.9816 95.7825L72.0605 93.3752C70.401 93.7339 68.7111 94.0041 67.0114 94.1821C66.6383 94.2197 66.2626 94.2528 65.8868 94.2832L67.4551 96.0643C67.5857 96.2128 67.7718 96.2996 67.9677 96.2996Z" fill="#AD1B30"/>
<path d="M67.9729 98.5847C68.0188 98.5847 68.0646 98.5838 68.1104 98.5811L70.4876 98.4733C71.6154 98.4221 72.6049 97.7489 73.0678 96.7181L74.5525 93.4083C74.6549 93.18 74.7259 92.9445 74.769 92.7055C74.645 92.7396 74.5219 92.7738 74.3979 92.807C73.6277 93.0164 72.8485 93.2061 72.0621 93.3759L70.9827 95.7835C70.8749 96.0226 70.6457 96.1789 70.3824 96.1906L68.0071 96.2984C67.9945 96.2993 67.9819 96.2994 67.9693 96.2994C67.7725 96.2994 67.5874 96.2131 67.4571 96.0648L65.8879 94.2836C65.3613 94.3249 64.8328 94.3582 64.308 94.3833C63.8712 94.4031 63.4353 94.4175 63.0003 94.4247C63.0704 94.5289 63.1477 94.6287 63.2313 94.7248L65.7414 97.5746C66.3112 98.2216 67.1174 98.5847 67.9729 98.5847Z" fill="#371A45"/>
<path d="M105.476 62.7468C102.885 69.9994 98.4717 76.6339 92.4101 81.9112C91.1736 82.9865 89.8738 84.0048 88.506 84.9604C87.8422 85.4264 87.1562 85.8764 86.457 86.3177C84.3426 87.6341 82.1643 88.7561 79.9386 89.6912C78.0217 90.5021 76.0679 91.1698 74.0981 91.703C71.7196 92.3488 69.3105 92.7915 66.8965 93.0428C66.0159 93.1322 65.1352 93.1975 64.2553 93.2399C48.1473 93.9754 32.1265 86.2256 22.9977 71.5627C9.54839 49.9656 16.1554 21.5558 37.7502 8.10699C41.91 5.51949 46.3268 3.66691 50.8372 2.53461C51.3632 2.39727 51.8965 2.27454 52.4298 2.16204C53.8558 1.85522 55.2876 1.61708 56.7229 1.44906C60.0419 1.06042 63.3768 1.04143 66.6637 1.37309C69.9492 1.70036 73.1946 2.3812 76.3299 3.39954C77.3266 3.72243 78.3129 4.07746 79.2895 4.47047C80.7519 5.05927 82.1865 5.7182 83.5899 6.46041C90.587 10.1364 96.7293 15.6664 101.208 22.862C108.946 35.2852 110.045 49.9598 105.476 62.7468Z" fill="white"/>
<path d="M62.0388 1.25785C63.5776 1.25785 65.1179 1.33532 66.6512 1.48881C69.9221 1.81477 73.166 2.49449 76.2931 3.51041C77.2995 3.83637 78.2927 4.19598 79.2456 4.57896C80.7337 5.17827 82.1767 5.84628 83.5356 6.56547C90.7197 10.3382 96.7966 15.9952 101.109 22.9239C108.569 34.9015 110.121 49.4035 105.367 62.7113C102.731 70.0888 98.2242 76.6974 92.3343 81.8266C91.0866 82.9113 89.7764 83.9345 88.4392 84.8671C87.8261 85.2983 87.1567 85.7412 86.3943 86.2221C84.316 87.5158 82.1287 88.6486 79.8928 89.5871C78.0209 90.3779 76.0608 91.0532 74.0675 91.5926C71.7355 92.227 69.3188 92.6758 66.884 92.9316C66.0111 93.0187 65.1242 93.0846 64.2497 93.127C63.5491 93.159 62.8479 93.1751 62.1507 93.1751C46.3196 93.1757 31.4999 85.0045 23.096 71.5038C9.70148 49.997 16.303 21.6025 37.8105 8.20555C41.8918 5.66795 46.2845 3.79837 50.8643 2.64797C51.3672 2.51641 51.8861 2.3951 52.4518 2.2767C53.8683 1.97265 55.3097 1.73293 56.7355 1.56482C58.4919 1.36018 60.2643 1.25785 62.0388 1.25785ZM62.1507 93.405C62.852 93.405 63.5554 93.3891 64.2601 93.3565C65.1394 93.3147 66.0298 93.248 66.9076 93.1597C69.3549 92.9038 71.7842 92.4521 74.1279 91.8163C76.1311 91.2725 78.1009 90.5942 79.9824 89.799C82.2289 88.8548 84.4273 87.7175 86.5166 86.4165C87.2826 85.9342 87.9547 85.4883 88.5712 85.0557C89.9147 84.1187 91.232 83.0896 92.4852 81.9991C98.4049 76.8465 102.934 70.2013 105.583 62.7888C110.361 49.4138 108.802 34.8401 101.305 22.8026C96.9702 15.8388 90.8628 10.1541 83.6426 6.36082C82.2768 5.63872 80.8269 4.96777 79.3319 4.36553C78.3734 3.98109 77.3752 3.61858 76.364 3.29115C73.2215 2.27084 69.961 1.58821 66.6741 1.26078C63.3559 0.926041 60.0029 0.952339 56.709 1.33678C55.276 1.50488 53.8274 1.74607 52.4051 2.05304C51.835 2.17144 51.3131 2.29277 50.8073 2.42432C46.2041 3.58057 41.7909 5.46039 37.6891 8.01114C16.0735 21.4739 9.43837 50.0102 22.9001 71.6251C31.3464 85.1931 46.2421 93.4044 62.1507 93.405Z" fill="#371A45"/>
<path d="M62.1495 92.1453C62.831 92.1453 63.5163 92.1302 64.2016 92.0988C64.3032 92.0938 64.4061 92.0888 64.5091 92.0838C57.2309 91.5052 50.2502 89.2863 44.2397 85.525C38.6157 82.0059 34.0573 77.3523 30.7013 71.7599C29.3646 72.981 27.8523 73.8206 26.2232 74.2461C34.6836 85.4735 48.0037 92.1453 62.1495 92.1453ZM68.3559 89.9515C72.0784 89.9515 75.8524 89.5072 79.5794 88.6036C79.7902 88.5145 80.0006 88.4229 80.2106 88.3312C80.2106 88.3312 80.2112 88.33 80.212 88.33C80.2273 88.3237 80.2432 88.3162 80.2593 88.3086C80.2613 88.3086 80.2627 88.3074 80.2648 88.3061C80.2794 88.2999 80.2933 88.2936 80.3079 88.2873C80.3106 88.2861 80.3141 88.2848 80.3177 88.2835C80.3308 88.2773 80.344 88.2723 80.3572 88.266C80.3615 88.2635 80.3648 88.2622 80.3697 88.261C80.3815 88.2547 80.3941 88.2497 80.4059 88.2434C80.4114 88.2421 80.4163 88.2396 80.4218 88.2371C80.433 88.2321 80.4434 88.2271 80.4538 88.2221C80.4609 88.2195 80.4678 88.2158 80.474 88.2133C80.4838 88.2095 80.4927 88.2045 80.5025 88.2007C80.5108 88.197 80.5185 88.1944 80.5261 88.1894C80.5345 88.1857 80.5428 88.1831 80.5512 88.1781C80.5603 88.1756 80.5693 88.1706 80.5783 88.1668C80.5852 88.1631 80.5921 88.1606 80.5992 88.1568C80.6096 88.1518 80.62 88.148 80.6304 88.143C80.6359 88.1405 80.6416 88.138 80.6471 88.1355C80.6589 88.1304 80.6701 88.1254 80.6819 88.1191C80.686 88.1179 80.6909 88.1154 80.6951 88.1141C80.7076 88.1078 80.7208 88.1016 80.734 88.0953C80.7367 88.094 80.7395 88.0928 80.7424 88.0928C80.7562 88.0852 80.7709 88.079 80.7854 88.0727C80.7868 88.0714 80.7889 88.0714 80.7903 88.0702C80.8055 88.0627 80.8216 88.0551 80.8369 88.0489H80.8375C82.5557 87.2594 84.2371 86.3546 85.8475 85.3505C86.5954 84.8799 87.2502 84.4457 87.8521 84.024C89.1247 83.1354 90.3738 82.1628 91.5645 81.1324C84.3845 85.3192 76.3843 87.5243 68.4236 87.5243C64.2781 87.5243 60.1427 86.9256 56.1403 85.6982C46.4926 82.7413 38.8793 76.5277 34.1828 68.035C34.046 67.9107 33.9067 67.7839 33.7699 67.6572C33.3457 68.488 32.86 69.2674 32.3128 69.9865C35.5195 75.5413 39.9449 80.1434 45.4521 83.5885C52.1516 87.7803 60.1301 89.9515 68.3559 89.9515ZM17.7464 40.216C18.2723 40.0052 18.8133 39.8383 19.3655 39.7203C19.1484 38.0222 19.0279 36.3204 19.0003 34.6211C18.4656 36.4572 18.0464 38.326 17.7464 40.216Z" fill="#B9AFBE"/>
<path d="M62.0383 2.02686C63.5514 2.02686 65.0659 2.10312 66.5728 2.25563C69.7903 2.5768 72.9798 3.24405 76.0549 4.24273C77.0446 4.56389 78.0212 4.91731 78.9575 5.29273C80.4205 5.88226 81.8391 6.53925 83.1743 7.2461C90.2395 10.9563 96.2142 16.5187 100.455 23.3306C107.79 35.1065 109.315 49.3652 104.64 62.4507C102.049 69.704 97.6183 76.2035 91.8271 81.2452C90.601 82.3114 89.3124 83.3174 87.9981 84.2354C87.3933 84.6592 86.7344 85.0962 85.9831 85.5699C83.9431 86.8384 81.7918 87.953 79.5941 88.8754C77.7521 89.6541 75.8255 90.3184 73.8661 90.8493C71.5731 91.4711 69.1968 91.914 66.8029 92.1633C65.9466 92.2498 65.0736 92.3158 64.2117 92.3569C63.5236 92.3877 62.8334 92.4038 62.1488 92.4038C46.5831 92.4038 32.013 84.3703 23.7491 71.0957C10.5796 49.9488 17.0705 22.0313 38.218 8.85924C42.2304 6.36474 46.5494 4.52575 51.0517 3.39509C51.5488 3.26456 52.0562 3.14578 52.6091 3.03139C54.0067 2.7293 55.4234 2.49467 56.8247 2.33042C58.5505 2.12804 60.2937 2.02686 62.0383 2.02686ZM62.1502 94.1746C62.8633 94.1746 63.5778 94.1586 64.2951 94.1259C65.1897 94.0828 66.0933 94.016 66.9851 93.9257C69.4754 93.6651 71.9456 93.2049 74.329 92.5586C76.3655 92.0064 78.3686 91.3171 80.2822 90.5076C82.5641 89.55 84.7994 88.3929 86.9234 87.0702C87.704 86.5789 88.3866 86.1257 89.0143 85.6858C90.3773 84.734 91.7159 83.6884 92.9906 82.5812C99.0098 77.34 103.615 70.5853 106.309 63.0461C111.166 49.4503 109.581 34.6328 101.959 22.395C97.5523 15.3147 91.3419 9.53529 84.0007 5.67841C82.6134 4.94517 81.1385 4.26179 79.6191 3.65026C78.6439 3.25871 77.6292 2.89062 76.6012 2.55772C73.4067 1.52091 70.0919 0.825798 66.7501 0.492905C63.3784 0.152679 59.9698 0.179077 56.6189 0.570625C55.1609 0.74221 53.6885 0.987106 52.241 1.298C51.6647 1.41826 51.1294 1.54292 50.6117 1.67783C45.9393 2.85249 41.4517 4.76333 37.2809 7.35609C15.3047 21.0443 8.56012 50.0574 22.2459 72.0313C30.8325 85.8251 45.976 94.1746 62.1502 94.1746Z" fill="#371A45"/>
<path d="M62.0398 2.28476C63.5446 2.28476 65.05 2.36109 66.5486 2.51083C69.748 2.83087 72.9195 3.49591 75.9771 4.48833C76.9613 4.80689 77.9323 5.15777 78.8637 5.53213C80.3177 6.11789 81.7288 6.77117 83.0555 7.47291C90.0812 11.1636 96.0219 16.6938 100.238 23.4675C107.531 35.1768 109.048 49.354 104.4 62.3655C101.823 69.5766 97.4182 76.0376 91.6604 81.0511C90.4406 82.1125 89.1596 83.1122 87.8521 84.0254C87.2502 84.4482 86.5954 84.8813 85.8476 85.3525C83.8201 86.615 81.6815 87.722 79.4962 88.6395C77.6647 89.4147 75.7491 90.0738 73.8002 90.6009C71.5203 91.2204 69.1578 91.6593 66.778 91.9089C65.9265 91.9955 65.0584 92.0601 64.2015 92.1012C63.5167 92.1321 62.8307 92.1467 62.1496 92.1467C46.6745 92.1482 32.1856 84.1604 23.9686 70.961C10.8744 49.9353 17.3268 22.1742 38.3547 9.07898C42.345 6.59647 46.6393 4.76872 51.1156 3.64418C51.6118 3.51499 52.1139 3.39755 52.6629 3.28304C54.0547 2.98356 55.4631 2.74866 56.856 2.58571C58.5721 2.38605 60.3049 2.28476 62.0398 2.28476ZM62.1517 94.4324C62.8683 94.4324 63.5877 94.4164 64.3078 94.383C65.2079 94.3399 66.1163 94.2725 67.0122 94.1822C69.5172 93.9202 72.0013 93.4573 74.3978 92.8066C76.4456 92.2524 78.4598 91.5595 80.3838 90.7447C82.6775 89.7817 84.9253 88.619 87.0605 87.2889C87.846 86.7942 88.5326 86.339 89.163 85.8972C90.5336 84.94 91.8793 83.8889 93.1603 82.7746C99.2129 77.5057 103.844 70.7129 106.551 63.1333C111.436 49.4626 109.842 34.5647 102.179 22.2593C97.7477 15.1421 91.5033 9.33002 84.1218 5.45139C82.7275 4.71442 81.2443 4.02735 79.7165 3.41223C78.7358 3.01879 77.7154 2.64884 76.6818 2.31412C73.47 1.27179 70.1372 0.572983 66.7766 0.238266C63.3868 -0.103798 59.9595 -0.0773773 56.5905 0.316071C55.1247 0.487831 53.6436 0.734482 52.1887 1.04718C51.6103 1.16903 51.0715 1.29381 50.5488 1.43034C45.8523 2.61066 41.3393 4.5309 37.1464 7.13819C15.0498 20.9013 8.26851 50.0733 22.0292 72.1678C30.6632 86.0381 45.889 94.4324 62.1517 94.4324Z" fill="#371A45"/>
<path d="M100.11 73.2629C76.3164 96.0207 37.9808 88.3369 31.0968 56.4626C26.4129 34.7771 44.0308 13.4491 65.1467 10.2845C80.5159 7.98091 96.5281 12.4562 106.623 35.3303C106.623 35.3303 109.528 46.1475 107.677 53.9335C105.827 61.7194 102.713 68.9791 102.713 68.9791L100.11 73.2629Z" fill="#371A45"/>
<path d="M31.099 56.4647C37.9831 88.3387 76.3194 96.0214 100.113 73.2674L100.639 72.398C72.0996 82.1693 40.1401 69.1161 32.58 37.0175C30.3312 43.1149 29.6552 49.7731 31.099 56.4647Z" fill="#220F2D"/>
<path d="M79.5795 88.6032C67.6162 91.5036 55.1828 89.678 45.4527 83.5893C36.1594 77.774 29.9432 68.6663 27.4767 57.2483C25.2185 46.7981 27.6054 35.7896 34.1978 26.2493C41.4151 15.8063 52.8551 8.50249 64.8012 6.71306C71.4821 5.71057 77.6598 5.98543 83.164 7.52895C90.1403 11.2178 96.0427 16.7264 100.238 23.4661C107.531 35.1762 109.048 49.3543 104.4 62.3635C101.823 69.5762 97.4182 76.0381 91.6604 81.0505C90.4404 82.1109 89.1594 83.112 87.8521 84.0248C87.2502 84.4472 86.5954 84.8797 85.8475 85.3513C83.8458 86.5982 81.7356 87.6933 79.5795 88.6032ZM68.3605 92.2371C72.2932 92.2371 76.2773 91.7626 80.2099 90.802C80.2684 90.7876 80.3254 90.7688 80.3809 90.7456C82.6773 89.7807 84.9253 88.6177 87.0611 87.2883C87.8459 86.7935 88.5326 86.3379 89.1631 85.8952C90.5336 84.939 91.8793 83.8888 93.1603 82.7749C99.2129 77.505 103.844 70.7132 106.551 63.1331C111.436 49.4613 109.842 34.5629 102.179 22.2581C97.7477 15.1409 91.5033 9.32851 84.1217 5.45019C84.0515 5.41402 83.9779 5.38509 83.9021 5.3634C78.0539 3.70271 71.5133 3.39603 64.462 4.45204C51.9032 6.33405 39.8874 13.9981 32.3186 24.9517C25.3632 35.0171 22.8503 46.6578 25.2431 57.73C27.8427 69.7642 34.4119 79.3768 44.2404 85.5263C51.3043 89.9457 59.7086 92.2356 68.3605 92.2371Z" fill="#371A45"/>
<path d="M99.2143 72.5418C87.4483 83.7268 71.2144 87.9301 56.8113 83.5153C44.0838 79.6135 35.1181 69.6663 32.2153 56.2218C30.2143 46.9605 32.3325 37.2019 38.1767 28.7439C44.5783 19.4813 54.7246 13.0027 65.3176 11.4148C83.6519 8.66792 97.186 16.8401 105.543 35.7084C105.799 36.7089 108.247 46.6075 106.568 53.6706C104.859 60.8581 102.02 67.6868 101.695 68.4586L99.2143 72.5418ZM68.4238 87.5242C80.0605 87.5242 91.7799 82.8149 100.902 74.0897C100.974 74.0211 101.037 73.9425 101.089 73.8567L103.69 69.5734C103.718 69.5276 103.743 69.4805 103.764 69.4305C103.893 69.1318 106.939 61.9915 108.791 54.198C110.687 46.2231 107.85 35.4883 107.729 35.0353C107.713 34.9795 107.694 34.9238 107.67 34.8695C98.85 14.8835 84.4894 6.23112 64.9792 9.15527C53.7727 10.8346 43.0504 17.6719 36.2972 27.4448C30.0886 36.4273 27.8461 46.819 29.9814 56.7048C33.0643 70.9797 42.6002 81.5487 56.141 85.6991C60.1429 86.9268 64.2792 87.5242 68.4238 87.5242Z" fill="#371A45"/>
<path d="M10.5972 57.5802C11.4328 66.6281 17.4764 73.7194 24.097 73.4193C30.7163 73.118 35.4058 65.5375 34.5701 56.4896C33.7344 47.4404 27.6897 40.3492 21.0703 40.6505C14.4509 40.9518 9.76152 48.531 10.5972 57.5802Z" fill="white"/>
<path d="M21.481 41.7826C27.3491 41.7826 32.6687 48.3254 33.432 56.5935C33.886 61.5055 32.6024 66.2225 29.9997 69.2092C28.3406 71.1148 26.2815 72.175 24.0445 72.2769C18.0352 72.553 12.5131 65.9095 11.7339 57.4733L10.5976 57.5789L11.7339 57.4733C11.2811 52.5625 12.5647 47.8456 15.1662 44.8577C16.8265 42.9532 18.8856 41.893 21.1227 41.7912C21.2417 41.785 21.362 41.7826 21.481 41.7826ZM23.6959 74.5691C23.8469 74.5691 23.9966 74.5666 24.1475 74.5593C27.0239 74.428 29.6438 73.0978 31.7226 70.7111C34.7732 67.2103 36.2249 61.9878 35.7071 56.3837C34.8174 46.7511 28.2388 39.1763 21.0184 39.5076C18.1432 39.6389 15.5233 40.9703 13.4445 43.3569C10.3939 46.8578 8.94098 52.0791 9.45882 57.6844C10.3301 67.1158 16.6645 74.5691 23.6959 74.5691Z" fill="#371A45"/>
<path d="M10.3996 64.2503C13.2072 70.7468 19.274 73.5543 23.9501 70.5204C28.6274 67.4854 30.1426 59.7599 27.3362 53.2634C24.5298 46.7668 18.4619 43.9593 13.7845 46.9932C9.10839 50.0271 7.59319 57.7537 10.3996 64.2503Z" fill="white"/>
<path d="M17.8281 45.8865C18.5664 45.8865 19.3178 45.9998 20.0728 46.2276C23.064 47.1328 25.6712 49.7137 27.2241 53.3096C30.0055 59.7451 28.5063 67.4198 23.8834 70.4193C21.9942 71.6453 19.8414 71.9447 17.66 71.284C14.6675 70.3787 12.0615 67.799 10.5074 64.202C7.72726 57.7665 9.22647 50.093 13.8481 47.0935C15.0838 46.2908 16.4327 45.8865 17.8281 45.8865ZM19.907 71.866C21.3466 71.866 22.7372 71.4473 24.0134 70.6197C28.7293 67.5605 30.2679 59.7523 27.4436 53.2154C25.8621 49.5539 23.2 46.9241 20.1419 45.9998C17.8902 45.3176 15.6694 45.6265 13.7181 46.8919C9.00225 49.9523 7.46367 57.7605 10.288 64.2974C11.8695 67.9577 14.5315 70.5875 17.5908 71.5129C18.3696 71.7479 19.1449 71.866 19.907 71.866Z" fill="#371A45"/>
<path d="M25.048 69.8289C26.813 68.513 28.1039 66.299 28.5497 63.4244C28.5812 63.2204 28.6083 63.0154 28.6311 62.8104C28.1516 65.6438 26.9214 68.1594 25.048 69.8289Z" fill="#B9AFBE"/>
<path d="M20.9499 71.196C21.7319 71.196 22.4879 71.0671 23.2002 70.8187C23.4321 70.6992 23.6604 70.5655 23.8852 70.42C27.082 68.346 28.7845 64.0361 28.6129 59.4469C28.4769 58.2946 28.2154 57.1553 27.8415 56.0598C26.8276 60.2348 23.9077 62.7548 20.4542 62.7548C19.3515 62.7548 18.1944 62.4981 17.0279 61.9562C13.9127 60.5105 11.4459 57.3635 10.2072 53.7173C10.1208 54.0639 10.051 54.4271 9.99306 54.7986C9.02645 61.0311 12.3983 68.0171 17.5248 70.3975C18.6901 70.9405 19.8472 71.196 20.9499 71.196Z" fill="#B9AFBE"/>
<path d="M23.1995 70.8171C23.8578 70.5878 24.4787 70.2547 25.051 69.828C26.9246 68.1585 28.1542 65.6431 28.6339 62.8102C28.7552 61.6965 28.7431 60.5651 28.6119 59.4458C28.785 64.0353 27.0812 68.3448 23.8854 70.4179C23.6604 70.5646 23.4321 70.698 23.1995 70.8171Z" fill="#371A45"/>
<path d="M17.7432 46.2077C22.0665 46.2077 26.0636 51.5214 26.7052 58.1914C27.1034 62.3287 26.114 66.201 24.0561 68.5539C22.9144 69.8586 21.522 70.5781 20.0302 70.6333C19.9642 70.6369 19.8982 70.6381 19.8323 70.6381C15.5078 70.6381 11.5118 65.3232 10.869 58.6531C10.4709 54.517 11.4615 50.6436 13.5182 48.2907C14.6611 46.9872 16.0522 46.2676 17.5441 46.2113C17.6101 46.2089 17.676 46.2077 17.7432 46.2077ZM19.8443 72.9226C19.9354 72.9226 20.0254 72.9214 20.1165 72.9178C22.2524 72.8375 24.2096 71.8481 25.7758 70.0577C28.2403 67.2419 29.4371 62.7233 28.9802 57.9732C28.2139 50.0188 23.0595 43.7193 17.459 43.928C15.3219 44.0083 13.3647 44.9965 11.7985 46.7869C9.3352 49.6039 8.13714 54.1213 8.59405 58.8714L9.73215 58.7623L8.59405 58.8714C9.34719 66.6975 14.3625 72.9226 19.8443 72.9226Z" fill="#371A45"/>
<path d="M98.4617 59.9148C102.78 54.6839 104.865 49.1204 103.978 41.897C103.889 41.1836 103.771 40.4537 103.625 39.7072C103.593 39.5347 103.556 39.365 103.517 39.1953L103.513 39.1856C103.113 37.694 102.513 35.7554 101.653 33.6236C99.0644 27.1963 94.1329 19.0181 85.2508 16.0998C81.2514 14.7848 77.4036 14.2784 73.8804 14.2784C62.7702 14.2784 54.869 19.3106 55.501 19.926C55.501 19.926 56.8974 19.806 59.1935 19.806C65.7746 19.806 79.7543 20.7829 89.4983 28.3361C89.5121 28.3471 89.5261 28.3581 89.54 28.3678C92.3043 30.5148 94.4374 33.3724 95.7378 36.6205C97.4567 40.9187 98.012 44.1323 98.3916 46.9803C99.5426 55.6401 98.4617 59.9148 98.4617 59.9148Z" fill="#C3BAC7"/>
<path d="M42.6913 50.4578C45.7933 50.4578 48.5564 47.7508 49.0323 44.0909C49.5431 40.1606 47.2234 36.6202 43.8511 36.1817C43.6194 36.1518 43.389 36.1369 43.161 36.1369C40.059 36.1369 37.2959 38.8439 36.82 42.5038C36.3093 46.4328 38.6276 49.9744 41.9999 50.4129C42.2316 50.4428 42.4633 50.4578 42.6913 50.4578Z" fill="#C3BAC7"/>
<path d="M43.0181 58.2214C43.3546 57.8279 43.6089 57.3295 43.7321 56.7649C44.0788 55.1659 43.2473 53.6273 41.8752 53.3296C41.7189 53.2965 41.5627 53.2794 41.4064 53.2794C40.8213 53.2794 40.2544 53.5121 39.7902 53.9135C40.795 55.4248 41.8741 56.863 43.0181 58.2214Z" fill="#C3BAC7"/>
<path d="M41.0865 59.1726C41.8117 59.1726 42.5085 58.8146 43.0166 58.2224C41.8731 56.864 40.7943 55.425 39.7895 53.9144C39.2962 54.3406 38.9199 54.9567 38.7608 55.6865C38.4129 57.2857 39.245 58.8237 40.617 59.1226C40.7727 59.1556 40.9307 59.1726 41.0865 59.1726Z" fill="#BCB7C0"/>
<path d="M72.9863 118.264C73.3127 118.264 73.631 118.125 73.852 117.867L83.7344 106.392C83.9929 106.092 84.078 105.678 83.9574 105.299L82.7613 101.549L85.8256 99.8758C86.1926 99.6751 86.4207 99.291 86.4207 98.8733V87.0268C86.4207 86.3953 85.9098 85.8834 85.2782 85.8834C84.6467 85.8834 84.1358 86.3953 84.1358 87.0268V98.1952L80.8393 99.9954C80.3588 100.257 80.1318 100.824 80.298 101.345L81.5864 105.384L72.6255 115.79L53.7446 109.29L52.9986 103.428C52.9438 102.994 52.6438 102.629 52.2282 102.489L39.5308 98.2368L38.957 86.6761C38.9256 86.0456 38.3894 85.557 37.7589 85.5915C37.1284 85.6229 36.6428 86.1591 36.6752 86.7896L37.2875 99.1288C37.3098 99.5991 37.619 100.007 38.066 100.156L50.8222 104.428L51.5683 110.282C51.623 110.714 51.918 111.077 52.3295 111.218L72.6143 118.203C72.736 118.244 72.8617 118.264 72.9863 118.264Z" fill="#371A45"/>
<path d="M66.8518 97.0533L65.7242 108.568L72.8262 116.165L75.4128 106.502L71.8028 96.6124L66.8518 97.0533Z" fill="#EC1C24"/>
<path d="M74.2152 106.556L72.2545 113.882L66.9113 108.166L67.8965 98.1088L71.0302 97.8292L74.2152 106.556ZM72.8251 117.309C72.9177 117.309 73.0103 117.298 73.1021 117.275C73.5052 117.174 73.8218 116.863 73.9285 116.462L76.5154 106.799C76.5763 106.572 76.5657 106.332 76.4854 106.112L72.8754 96.2222C72.6981 95.7354 72.2174 95.4302 71.7006 95.4752L66.7499 95.9171C66.203 95.9656 65.7682 96.3969 65.7144 96.9437L64.5863 108.458C64.5546 108.785 64.6648 109.11 64.8889 109.349L71.9899 116.947C72.2095 117.181 72.5129 117.309 72.8251 117.309Z" fill="#371A45"/>
<path d="M63.6296 101.909C63.9799 101.909 64.322 101.748 64.5435 101.453L67.5116 97.5058C67.8904 97.0019 67.7883 96.2848 67.2845 95.9069C66.7797 95.5271 66.0643 95.6292 65.6846 96.133L63.2977 99.3079L53.8299 94.4119C53.269 94.1232 52.5794 94.342 52.2907 94.9019C52.0002 95.4619 52.2199 96.1514 52.7808 96.442L63.1055 101.781C63.2728 101.868 63.4531 101.909 63.6296 101.909Z" fill="#371A45"/>
<path d="M74.8134 99.9832C75.1196 99.9832 75.4223 99.8608 75.6446 99.626L79.3428 95.711C79.7758 95.2521 79.7553 94.5289 79.2964 94.0959C78.8375 93.6629 78.1142 93.6834 77.6812 94.1415L74.6223 97.3797L72.5768 96.1146C72.0393 95.7833 71.3358 95.9494 71.0036 96.4869C70.6724 97.0235 70.8384 97.7279 71.375 98.0591L74.2134 99.8126C74.3991 99.9269 74.6071 99.9832 74.8134 99.9832Z" fill="#371A45"/>
<path d="M67.8267 122.696C67.8267 123.683 68.6269 124.483 69.6137 124.483C70.5997 124.483 71.3999 123.683 71.3999 122.696C71.3999 121.709 70.5997 120.909 69.6137 120.909C68.6269 120.909 67.8267 121.709 67.8267 122.696Z" fill="#371A45"/>
<path d="M67.8267 132.306C67.8267 133.292 68.6269 134.093 69.6137 134.093C70.5997 134.093 71.3999 133.292 71.3999 132.306C71.3999 131.318 70.5997 130.519 69.6137 130.519C68.6269 130.519 67.8267 131.318 67.8267 132.306Z" fill="#371A45"/>
<path d="M67.5276 142.229C67.5276 143.216 68.3279 144.016 69.3145 144.016C70.301 144.016 71.1013 143.216 71.1013 142.229C71.1013 141.242 70.301 140.442 69.3145 140.442C68.3279 140.442 67.5276 141.242 67.5276 142.229Z" fill="#371A45"/>
</svg>
